<?xml version="1.0" encoding="UTF-8" standalone="no"?>
<svg
   xmlns:dc="http://purl.org/dc/elements/1.1/"
   xmlns:cc="http://creativecommons.org/ns#"
   xmlns:rdf="http://www.w3.org/1999/02/22-rdf-syntax-ns#"
   xmlns:svg="http://www.w3.org/2000/svg"
   xmlns="http://www.w3.org/2000/svg"
   height="76.9375"
   width="779.5"
   xml:space="preserve"
   viewBox="210 147 779.5 76.937502"
   y="0px"
   x="0px"
   id="Layer_1"
   version="1.1"><metadata
     id="metadata3422"><rdf:RDF><cc:Work
         rdf:about=""><dc:format>image/svg+xml</dc:format><dc:type
           rdf:resource="http://purl.org/dc/dcmitype/StillImage" /><dc:title></dc:title></cc:Work></rdf:RDF></metadata><defs
     id="defs3420" /><style
     id="style3400"
     type="text/css">
	.st0{fill:#FFFFFF;}
	.st1{fill:#DC4B26;}
	.st2{clip-path:url(#SVGID_2_);}
	.st3{fill:#D31C59;}
	.st4{fill:#A4C439;}
	.st5{fill:#4DC2E4;}
	.st6{opacity:0.2;enable-background:new    ;}
	.st7{opacity:0.3;enable-background:new    ;}
	.st8{fill:url(#SVGID_3_);}
	.st9{fill:url(#SVGID_4_);}
	.st10{fill:url(#SVGID_5_);}
	.st11{fill:url(#SVGID_6_);}
	.st12{fill:url(#SVGID_7_);}
	.st13{fill:url(#SVGID_8_);}
	.st14{fill:url(#SVGID_9_);}
	.st15{fill:url(#SVGID_10_);}
	.st16{fill:url(#SVGID_11_);}
	.st17{fill:url(#SVGID_12_);}
	.st18{opacity:0.5;fill:url(#SVGID_13_);enable-background:new    ;}
	.st19{opacity:0.4;fill:url(#SVGID_14_);enable-background:new    ;}
	.st20{clip-path:url(#SVGID_16_);fill:url(#SVGID_17_);}
	.st21{opacity:0.6;clip-path:url(#SVGID_19_);fill:url(#SVGID_20_);enable-background:new    ;}
	.st22{fill:#8ED8F8;}
	.st23{fill:url(#SVGID_21_);}
	.st24{fill:url(#SVGID_22_);}
	.st25{opacity:0.1;fill:url(#SVGID_23_);enable-background:new    ;}
	.st26{fill:url(#SVGID_24_);}
	.st27{fill:url(#SVGID_25_);}
	.st28{fill:url(#SVGID_26_);}
	.st29{fill:url(#SVGID_27_);}
	.st30{fill:url(#SVGID_28_);}
	.st31{fill:url(#SVGID_29_);}
	.st32{fill:url(#SVGID_30_);}
	.st33{fill:url(#SVGID_31_);}
	.st34{fill:url(#SVGID_32_);}
	.st35{opacity:0.1;fill:url(#SVGID_33_);enable-background:new    ;}
	.st36{opacity:0.5;fill:url(#SVGID_34_);enable-background:new    ;}
	.st37{opacity:0.5;fill:url(#SVGID_35_);enable-background:new    ;}
	.st38{fill:url(#SVGID_36_);}
	.st39{fill:url(#SVGID_37_);}
	.st40{fill:url(#SVGID_38_);}
	.st41{fill:url(#SVGID_39_);}
	.st42{fill:url(#SVGID_40_);}
	.st43{fill:url(#SVGID_41_);}
	.st44{fill:url(#SVGID_42_);}
	.st45{fill:url(#SVGID_43_);}
	.st46{fill:url(#SVGID_44_);}
</style><g
     transform="translate(-85.5,-147.3625)"
     id="g3402"><path
       style="fill:#ffffff"
       id="path3404"
       d="m 655.7,314.6 c -0.5,0 -0.9,-0.2 -1.2,-0.5 -0.4,-0.3 -0.5,-0.8 -0.5,-1.3 0,-0.5 0.2,-0.9 0.5,-1.3 0.4,-0.3 0.8,-0.5 1.2,-0.5 0.5,0 0.9,0.2 1.3,0.5 0.4,0.3 0.5,0.7 0.5,1.3 0,0.5 -0.2,0.9 -0.5,1.3 -0.4,0.4 -0.8,0.5 -1.3,0.5 z m -1,30 0,-23.9 2.2,0 0,23.9 c 0,0 -2.2,0 -2.2,0 z"
       class="st0" /><path
       style="fill:#ffffff"
       id="path3406"
       d="m 678.7,345.2 c -4.7,0 -8.5,-1.6 -11.3,-4.7 -2.8,-3.1 -4.2,-7.2 -4.2,-12.3 0,-5.3 1.4,-9.6 4.3,-12.8 2.9,-3.2 6.8,-4.8 11.8,-4.8 4.5,0 8.2,1.5 11,4.6 2.8,3.1 4.2,7.2 4.2,12.2 0,5.5 -1.4,9.9 -4.3,13.1 -2.8,3.1 -6.7,4.7 -11.5,4.7 z m 0.3,-32.6 c -3.9,0 -7.1,1.4 -9.6,4.2 -2.5,2.8 -3.8,6.5 -3.8,11.1 0,4.6 1.2,8.3 3.6,11 2.4,2.7 5.6,4.1 9.5,4.1 4.1,0 7.4,-1.4 9.8,-4.1 2.4,-2.7 3.6,-6.5 3.6,-11.3 0,-4.7 -1.2,-8.4 -3.5,-11.1 -2.3,-2.5 -5.5,-3.9 -9.6,-3.9 z"
       class="st0" /><path
       style="fill:#ffffff"
       id="path3408"
       d="m 700.4,343.4 0,-2.6 c 2.4,1.5 4.8,2.3 7.3,2.3 2.6,0 4.6,-0.5 6,-1.6 1.4,-1.1 2,-2.6 2,-4.5 0,-1.7 -0.5,-3.1 -1.4,-4.1 -0.9,-1 -2.9,-2.4 -5.9,-4.2 -3.4,-2 -5.6,-3.6 -6.5,-5 -0.9,-1.3 -1.4,-2.9 -1.4,-4.6 0,-2.4 0.9,-4.4 2.8,-6 1.9,-1.6 4.3,-2.5 7.4,-2.5 2,0 4,0.3 6,1 l 0,2.4 c -2,-0.9 -4.1,-1.3 -6.3,-1.3 -2.3,0 -4.1,0.6 -5.4,1.7 -1.3,1.2 -2,2.6 -2,4.4 0,1.7 0.5,3.1 1.4,4.1 0.9,1 2.9,2.4 5.9,4.1 3.1,1.8 5.2,3.4 6.3,4.7 1.1,1.3 1.6,3 1.6,4.8 0,2.6 -0.9,4.7 -2.7,6.3 -1.8,1.6 -4.3,2.4 -7.6,2.4 -1.2,0 -2.5,-0.2 -4,-0.5 -1.6,-0.4 -2.8,-0.8 -3.5,-1.3 z"
       class="st0" /></g><g
     transform="translate(-85.5,-147.3625)"
     id="g3410"><path
       style="fill:#a4c439"
       id="path3412"
       d="m 300.2,319.3 c -2.6,0 -4.7,2.1 -4.7,4.7 l 0,19.9 c 0,2.6 2.1,4.7 4.7,4.7 2.6,0 4.7,-2.1 4.7,-4.7 l 0,-19.9 c 0.1,-2.6 -2.1,-4.7 -4.7,-4.7 m 38.3,-17.9 3.3,-6 c 0.2,-0.3 0.1,-0.7 -0.3,-0.9 -0.3,-0.2 -0.7,-0.1 -0.9,0.3 l -3.3,6.1 c -2.8,-1.3 -6,-2 -9.3,-2 -3.3,0 -6.5,0.7 -9.3,1.9 l -3.3,-6.1 c -0.2,-0.3 -0.6,-0.4 -0.9,-0.3 -0.3,0.3 -0.5,0.7 -0.3,1 l 3.3,6 c -6.5,3.4 -10.9,9.8 -10.9,17.1 l 42.8,0 c 0,-7.3 -4.4,-13.7 -10.9,-17.1 m -20.2,9.4 c -1,0 -1.8,-0.8 -1.8,-1.8 0,-1 0.8,-1.8 1.8,-1.8 1,0 1.8,0.8 1.8,1.8 0,1 -0.8,1.8 -1.8,1.8 m 19.4,0 c -1,0 -1.8,-0.8 -1.8,-1.8 0,-1 0.8,-1.8 1.8,-1.8 1,0 1.8,0.8 1.8,1.8 0,1 -0.8,1.8 -1.8,1.8 m -30.9,9.4 0,30.8 c 0,2.8 2.3,5.1 5.1,5.1 l 3.4,0 0,10.5 c 0,2.6 2.1,4.7 4.7,4.7 2.6,0 4.7,-2.1 4.7,-4.8 l 0,-10.5 6.4,0 0,10.5 c 0,2.6 2.1,4.7 4.7,4.7 2.6,0 4.7,-2.1 4.7,-4.7 l 0,-10.5 3.5,0 c 2.8,0 5.1,-2.3 5.1,-5.1 l 0,-30.8 -42.3,0.1 z m 53.8,3.8 c 0,-2.6 -2.1,-4.7 -4.7,-4.7 -2.6,0 -4.7,2.1 -4.7,4.7 l 0,19.9 c 0,2.6 2.1,4.7 4.7,4.7 2.6,0 4.7,-2.1 4.7,-4.7 l 0,-19.9 z"
       class="st4" /></g><g
     transform="translate(-85.5,-147.3625)"
     id="g3414"><path
       style="fill:#4dc2e4"
       id="path3416"
       d="m 1017.9,330.9 0,-18.6 22.8,-3.1 0,21.7 -22.8,0 z m 26.7,-22.2 30.4,-4.4 0,26.6 -30.4,0 0,-22.2 z m 30.4,26.1 0,26.6 -30.4,-4.3 0,-22.3 30.4,0 z m -34.2,21.8 -22.8,-3.1 0,-18.7 22.8,0 0,21.8 z"
       class="st5" /></g></svg>