<?xml version="1.0" encoding="utf-8"?>
<!-- Generator: Adobe Illustrator 19.1.0, SVG Export Plug-In . SVG Version: 6.00 Build 0)  -->
<svg version="1.1" id="Layer_1" xmlns="http://www.w3.org/2000/svg" xmlns:xlink="http://www.w3.org/1999/xlink" x="0px" y="0px"
	 viewBox="0 0 710.7 138" style="enable-background:new 0 0 710.7 138;" xml:space="preserve">
<style type="text/css">
	.st0{fill:#A5B1B9;}
	.st1{fill:#fff;}
</style>
<g>
	<g>
		<g>
			<path class="st0" d="M2.1,19.2l8.7-18.9C10.9,0.1,11,0,11.3,0h0.3c0.3,0,0.4,0.1,0.5,0.3l8.6,18.9c0.2,0.4-0.1,0.7-0.5,0.7h-2.4
				c-0.4,0-0.6-0.2-0.8-0.6l-1.4-3H7.2l-1.4,3c-0.1,0.3-0.4,0.6-0.8,0.6H2.5C2.1,19.9,1.9,19.6,2.1,19.2z M14.2,13.2L11.4,7h-0.1
				l-2.8,6.2H14.2z"/>
			<path class="st0" d="M26,0.8c0-0.3,0.2-0.5,0.5-0.5h6.6c3.5,0,6.3,2.8,6.3,6.2c0,3.5-2.8,6.3-6.3,6.3h-3.5v6.6
				c0,0.3-0.3,0.5-0.5,0.5h-2.6c-0.3,0-0.5-0.3-0.5-0.5V0.8z M32.9,9.4c1.6,0,2.9-1.3,2.9-2.9c0-1.5-1.3-2.7-2.9-2.7h-3.3v5.6H32.9z
				"/>
			<path class="st0" d="M41.8,19.2l8.7-18.9C50.6,0.1,50.7,0,51,0h0.3c0.3,0,0.4,0.1,0.5,0.3l8.6,18.9c0.2,0.4-0.1,0.7-0.5,0.7h-2.4
				c-0.4,0-0.6-0.2-0.8-0.6l-1.4-3h-8.4l-1.4,3c-0.1,0.3-0.4,0.6-0.8,0.6h-2.4C41.9,19.9,41.6,19.6,41.8,19.2z M53.9,13.2L51.1,7H51
				l-2.8,6.2H53.9z"/>
			<path class="st0" d="M74.3,0c2.8,0,4.9,0.9,6.8,2.6c0.3,0.2,0.3,0.6,0,0.8l-1.7,1.8c-0.2,0.2-0.5,0.2-0.7,0
				c-1.2-1-2.8-1.7-4.3-1.7c-3.6,0-6.3,3-6.3,6.5c0,3.5,2.7,6.5,6.3,6.5c1.7,0,3.1-0.6,4.3-1.6c0.2-0.2,0.5-0.2,0.7,0l1.7,1.8
				c0.2,0.2,0.2,0.6,0,0.8c-1.9,1.9-4.3,2.7-6.8,2.7c-5.6,0-10.1-4.5-10.1-10.1S68.7,0,74.3,0z"/>
			<path class="st0" d="M87.6,0.8c0-0.3,0.3-0.5,0.5-0.5h2.6c0.3,0,0.5,0.3,0.5,0.5v7.4h9.1V0.8c0-0.3,0.2-0.5,0.5-0.5h2.6
				c0.3,0,0.5,0.3,0.5,0.5v18.6c0,0.3-0.3,0.5-0.5,0.5H101c-0.3,0-0.5-0.3-0.5-0.5v-7.7h-9.1v7.7c0,0.3-0.2,0.5-0.5,0.5h-2.6
				c-0.3,0-0.5-0.3-0.5-0.5V0.8z"/>
			<path class="st0" d="M112,0.8c0-0.3,0.2-0.5,0.5-0.5H124c0.3,0,0.5,0.3,0.5,0.5v2.3c0,0.3-0.2,0.5-0.5,0.5h-8.3v4.6h6.9
				c0.3,0,0.5,0.3,0.5,0.5v2.3c0,0.3-0.3,0.5-0.5,0.5h-6.9v4.9h8.3c0.3,0,0.5,0.3,0.5,0.5v2.3c0,0.3-0.2,0.5-0.5,0.5h-11.4
				c-0.3,0-0.5-0.3-0.5-0.5V0.8z"/>
		</g>
		<g>
			<g>
				<path class="st1" d="M687.4,43.2h-10.5c-0.5,0-1,0.4-1,1v2c0,0.5,0.4,1,1,1h3.2v13c0,0.5,0.4,1,1,1h2.2c0.5,0,1-0.4,1-1v-13h3.2
					c0.5,0,1-0.4,1-1v-2C688.4,43.6,687.9,43.2,687.4,43.2z"/>
				<path class="st1" d="M710.7,59.9l-2.8-16.1c-0.1-0.5-0.4-0.8-0.9-0.8h-0.4c-0.4,0-0.7,0.2-0.9,0.5l-4.9,10.5l-4.9-10.5
					c-0.2-0.3-0.5-0.5-0.9-0.5h-0.4c-0.5,0-0.9,0.3-0.9,0.8l-2.9,16.2c0,0.3,0,0.6,0.2,0.8c0.2,0.2,0.4,0.3,0.7,0.3h2.2
					c0.5,0,0.9-0.4,0.9-0.8l1.2-7.6l3.6,8c0.2,0.3,0.5,0.5,0.9,0.5h0.4c0.4,0,0.8-0.2,0.9-0.6l3.6-8l1.2,7.6
					c0.1,0.4,0.5,0.7,0.9,0.7h2.2c0.3,0,0.6-0.1,0.8-0.3C710.7,60.5,710.7,60.2,710.7,59.9z"/>
			</g>
			<g>
				<path class="st1" d="M73.1,110.5c-0.8-0.8-1.9-1.2-3-1.2c-1.1,0-2.1,0.4-2.9,1.1c-5.6,4.6-11.8,6.9-18.4,6.9
					c-15,0-26.7-12.1-26.7-27.6c0-15.6,11.7-27.9,26.6-27.9c6.6,0,13.3,2.6,18.4,7c0.9,0.8,1.9,1.3,3,1.3c1.1,0,2.2-0.5,3-1.4l7.8-8
					c0.9-0.9,1.4-2.1,1.3-3.3c0-1.2-0.6-2.4-1.5-3.2c-9.6-8.6-19.6-12.4-32.4-12.4C21.7,41.7,0,63.3,0,90c0,12.9,5,25,14.1,34.1
					c9.1,9,21.2,14,34.2,14c12.5,0,23.8-4.5,32.6-13c0.9-0.9,1.4-2.2,1.4-3.5c0-1.1-0.5-2.1-1.3-2.8L73.1,110.5z"/>
				<path class="st1" d="M140.3,41.7c-12.9,0-25,5-34.1,14.1c-9,9.1-14,21.2-14,34.2c0,27,21.1,48.1,48.1,48.1c13,0,25.1-5,34.1-14
					c9.1-9,14.1-21.1,14.1-34.1C188.4,63.3,166.8,41.7,140.3,41.7z M140.3,117.3c-15.1,0-27.4-12.3-27.4-27.4
					c0-15.2,12.3-27.6,27.4-27.6c14.9,0,27.5,12.7,27.5,27.6C167.8,105.1,155.4,117.3,140.3,117.3z"/>
				<path class="st1" d="M285.1,72.5c0-16.3-13.4-29.6-30-29.6h-41.7c-2.4,0-4.4,2-4.4,4.4v84.9c0,2.4,2,4.4,4.4,4.4h11.8
					c2.4,0,4.4-2,4.4-4.4v-30.7h15l17.5,32.9c0.5,1.1,1.8,2.3,3.8,2.3h13.5c1.7,0,3.1-0.8,3.9-2.1c0.8-1.4,0.8-3.1,0-4.6l-16.5-30.7
					C278.1,94.1,285.1,84,285.1,72.5z M264.4,72.8c0,6-4.9,11.1-10.7,11.1h-23.9V62.3h23.9C259.5,62.3,264.4,67.1,264.4,72.8z"/>
				<path class="st1" d="M341.8,42.9h-30.4c-2.3,0-4.3,2-4.3,4.4v84.9c0,2.4,2,4.4,4.3,4.4h30.4c25.9,0,47-21.1,47-47
					C388.8,63.9,367.7,42.9,341.8,42.9z M367.1,89.7c0,15.9-11.3,27.4-26.9,27.4h-12.6V62.5h12.6C355.8,62.5,367.1,73.9,367.1,89.7z
					"/>
				<path class="st1" d="M452.1,41.7c-12.9,0-25,5-34.1,14.1c-9,9.1-14,21.2-14,34.2c0,27,21.1,48.1,48.1,48.1c13,0,25.1-5,34.1-14
					c9.1-9,14.1-21.1,14.1-34.1C500.3,63.3,478.7,41.7,452.1,41.7z M452.1,117.3c-15.1,0-27.4-12.3-27.4-27.4
					c0-15.2,12.3-27.6,27.4-27.6c14.9,0,27.5,12.7,27.5,27.6C479.6,105.1,467.3,117.3,452.1,117.3z"/>
				<path class="st1" d="M594.1,44.9c-0.8-1.3-2.2-2-3.8-2h-13.1c-2.1,0-3.5,1.3-4,2.6L550,97.6l-23.2-52c-0.5-1.3-2-2.7-4-2.7
					h-13.1c-1.6,0-3,0.7-3.8,2c-0.8,1.2-0.9,2.8-0.2,4.2l39.7,86.4c0.8,1.6,2.2,2.5,4,2.5h1.3c1.7,0,3.2-0.9,4-2.6l39.8-86.3
					C595,47.7,594.9,46.1,594.1,44.9z"/>
				<path class="st1" d="M672.7,130.6l-39.5-86.4c-0.3-0.6-1.3-2.5-4-2.5h-1.3c-1.7,0-3.2,0.9-4,2.6L584,130.6
					c-0.7,1.4-0.6,3,0.2,4.2c0.8,1.2,2.2,2,3.8,2h11.2c2.5,0,4.6-1.4,5.5-3.7l5.8-12.7h35.8l5.8,12.7c0.9,1.8,2.3,3.7,5.5,3.7h11.2
					c1.6,0,3-0.7,3.8-2C673.3,133.6,673.3,132,672.7,130.6z M638.1,102.1h-19.6l9.7-21.8L638.1,102.1z"/>
			</g>
		</g>
	</g>
</g>
</svg>
