<?xml version="1.0" encoding="utf-8"?>
<!-- Generator: Adobe Illustrator 19.1.0, SVG Export Plug-In . SVG Version: 6.00 Build 0)  -->
<svg version="1.1" id="Layer_1" xmlns="http://www.w3.org/2000/svg" xmlns:xlink="http://www.w3.org/1999/xlink" x="0px" y="0px"
	 viewBox="0 0 255 85" style="enable-background:new 0 0 255 85;" xml:space="preserve">
<style type="text/css">
	.st0{fill:#4DC2E4;}
	.st1{fill:none;stroke:#4DC2E4;stroke-width:4;stroke-miterlimit:10;}
</style>
<g>
	<g>
		<g>
			<g>
				<path class="st0" d="M120.8,46.5l0.2,6.2c-3.8,1.9-6.7,5.5-7.7,9.9c-0.3,1.6-1.9,2.6-3.4,2.2c-1.6-0.3-2.6-1.9-2.2-3.4
					C109.2,54.4,114.3,48.8,120.8,46.5z"/>
				<path class="st0" d="M145.1,64.8c-0.2,0-0.4,0.1-0.6,0.1c-1.3,0-2.5-0.9-2.8-2.3c-0.9-4.4-3.9-8-7.7-9.9l0.2-6.2
					c6.5,2.3,11.7,7.9,13.1,14.9C147.6,63,146.6,64.5,145.1,64.8z"/>
			</g>
			<g>
				<path class="st0" d="M120.3,34.6l0.2,5.9c-7.1,1.9-13.1,6.9-16.5,13.8c-0.7,1.4-2.4,2-3.9,1.3c-1.4-0.7-2-2.4-1.3-3.9
					C103.2,42.9,111.1,36.7,120.3,34.6z"/>
				<path class="st0" d="M154.8,55.6c-0.4,0.2-0.8,0.3-1.3,0.3c-1.1,0-2.1-0.6-2.6-1.6c-3.4-6.9-9.4-11.8-16.5-13.8l0.2-5.9
					c9.3,2.1,17.2,8.3,21.5,17.1C156.8,53.2,156.2,54.9,154.8,55.6z"/>
			</g>
			<g>
				<path class="st0" d="M119.9,22.9l0.2,5.8c-10.2,2-19.1,8.2-24.7,17.3c-0.5,0.9-1.5,1.4-2.5,1.4c-0.5,0-1-0.1-1.5-0.4
					c-1.4-0.8-1.8-2.6-1-4C97.1,32.2,107.8,25,119.9,22.9z"/>
				<path class="st0" d="M163.6,46.9c-1.4,0.8-3.1,0.4-4-1c-5.6-9.1-14.5-15.2-24.7-17.3l0.2-5.8c12.1,2.1,22.8,9.3,29.4,20.1
					C165.3,44.3,164.9,46.1,163.6,46.9z"/>
			</g>
		</g>
		<g>
			<path class="st0" d="M131.8,60.2c-1.1-1-2.4-1.5-4.2-1.5c-1.7,0-3.1,0.5-4.2,1.5c-1.1,0.9-1.6,2.1-1.6,3.6c0,1.4,0.5,2.6,1.6,3.6
				c1.1,1,2.5,1.5,4.2,1.5c1.8,0,3.1-0.5,4.2-1.5c1-1,1.5-2.2,1.5-3.6C133.3,62.3,132.8,61.2,131.8,60.2z"/>
			<polygon class="st0" points="123.8,51 131.1,51 132.2,23.4 132.6,15 122.5,15 122.8,23.4 			"/>
		</g>
	</g>
</g>
<g>
	<circle class="st0" cx="212.7" cy="45.4" r="11.3"/>
	<circle class="st1" cx="212.7" cy="45.4" r="21.4"/>
	<line class="st1" x1="213" y1="77" x2="213" y2="67"/>
	<line class="st1" x1="213" y1="25" x2="213" y2="15"/>
	<line class="st1" x1="234" y1="46" x2="244" y2="46"/>
	<line class="st1" x1="181" y1="46" x2="191" y2="46"/>
</g>
<path class="st0" d="M69.5,13h-48c-2.2,0-4.6,0.9-4.6,3.1V19h-0.3c-2.3,0-4.7,1.3-4.7,3.6v31.7c0,2.3,2.4,4.7,4.7,4.7H23v2.2
	C23,68,30,69,35.3,69H35v1.5c0,2.2,2.3,4.5,4.5,4.5H56c2.2,0,3-2.3,3-4.5V52h10.5c2.2,0,3.5-1.9,3.5-4.1V16.1
	C73,13.9,71.8,13,69.5,13z M23,53h-7V25c4,0,7.6,0,11.1,0c-0.3,0-0.5-0.1-0.7-0.1c-0.3,0.1-0.5,0.1-0.6,0.1C24.2,26,23,27.9,23,29.7
	C23,37.3,23,45,23,53z M35,65h0.3c-5.4,0-7.2-1.2-7.5-1.5C27.4,63,27,61.8,27,61.2c0-10.5,0-21,0-31.5c0-0.4,0.4-1,0.7-1.2
	c3.7-1.4,11.7-1.3,14.8-0.2c0.3,0.2,0.5,1,0.5,1.4V33h-3.5c-2.2,0-4.5,0.8-4.5,3C35,45.5,35,55,35,65z M55,67H39c0-10,0-19,0-28h16
	C55,48,55,57,55,67z M69,48H59V36c0-2.2-0.8-3-3-3h-9v-3.3c0-6.5-8-6.2-12-6.2v-0.8c0-2.3-1.4-3.6-3.7-3.6H21v-2h48V48z"/>
</svg>
