<?xml version="1.0" encoding="utf-8"?>
<!-- Generator: Adobe Illustrator 19.1.0, SVG Export Plug-In . SVG Version: 6.00 Build 0)  -->
<svg version="1.1" id="Layer_1" xmlns="http://www.w3.org/2000/svg" xmlns:xlink="http://www.w3.org/1999/xlink" x="0px" y="0px"
	 viewBox="-292 381.9 27 31.1" style="enable-background:new -292 381.9 27 31.1;" xml:space="preserve">
<style type="text/css">
	.st0{fill:#3992AB;}
</style>
<g>
	<polygon class="st0" points="-271,406.1 -271,408.1 -269.8,408.1 -266.9,413 -265.2,412 -268.6,406.1 	"/>
	<path class="st0" d="M-271,400.1v-4h2.4l3.4-5.9l-1.7-1l-2.8,4.9h-1.3v-5h-3v-4.6c0,0-0.1-2.6-4-2.6s-4,2.6-4,2.6v4.6h-4v5h-1.2
		l-2.9-4.9l-1.7,1l3.4,5.9h2.4v4h-6v2h6v3c0,0,0.2,5.5,7.5,5.5s7.5-5.5,7.5-5.5v-3h6v-2H-271z"/>
	<polygon class="st0" points="-291.8,412 -290.1,413 -287.2,408.1 -286,408.1 -286,406.1 -288.4,406.1 	"/>
</g>
</svg>
