<?xml version="1.0" encoding="utf-8"?>
<!-- Generator: Adobe Illustrator 19.1.0, SVG Export Plug-In . SVG Version: 6.00 Build 0)  -->
<svg version="1.1" id="Layer_1" xmlns="http://www.w3.org/2000/svg" xmlns:xlink="http://www.w3.org/1999/xlink" x="0px" y="0px"
	 viewBox="0 0 960 203" style="enable-background:new 0 0 960 203;" xml:space="preserve">
<style type="text/css">
	.st0{fill:#FFFFFF;}
	.st1{fill:#A5B0B8;}
	.st2{fill:#fff;}
</style>
<g>
	<g>
		<path class="st0" d="M193.2,203h-34.4l2.4-29h-16.9l-2.4,29H70.6l-2.4-29H51.3l2.4,29H19.3L0,77.3L48.3,0h115.9l48.3,77.3
			L193.2,203z M154.5,38.7h-31l2.1,14.5H86.9L89,38.7H58L38.6,77.3l9.7,77.3h115.9l9.7-77.3L154.5,38.7z M137.6,129
			c-2.7,0-4.8-8-4.8-18s2.2-18,4.8-18c2.7,0,4.8,8,4.8,18S140.3,129,137.6,129z M76.7,130.5c-2.7,0-4.8-8-4.8-18s2.2-18,4.8-18
			c2.7,0,4.8,8,4.8,18S79.3,130.5,76.7,130.5z"/>
	</g>
	<g>
		<g>
			<path class="st1" d="M251.3,47.7l8.7-18.9c0.1-0.2,0.2-0.3,0.5-0.3h0.3c0.3,0,0.4,0.1,0.5,0.3l8.6,18.9c0.2,0.4-0.1,0.7-0.5,0.7
				H267c-0.4,0-0.6-0.2-0.8-0.6l-1.4-3h-8.4l-1.4,3c-0.1,0.3-0.4,0.6-0.8,0.6h-2.4C251.4,48.4,251.2,48,251.3,47.7z M263.5,41.7
				l-2.8-6.2h-0.1l-2.8,6.2H263.5z"/>
			<path class="st1" d="M275.3,29.3c0-0.3,0.2-0.5,0.5-0.5h6.6c3.5,0,6.3,2.8,6.3,6.2c0,3.5-2.8,6.3-6.3,6.3H279v6.6
				c0,0.3-0.3,0.5-0.5,0.5h-2.6c-0.3,0-0.5-0.3-0.5-0.5V29.3z M282.2,37.8c1.6,0,2.9-1.3,2.9-2.9c0-1.5-1.3-2.7-2.9-2.7H279v5.6
				H282.2z"/>
			<path class="st1" d="M291.1,47.7l8.7-18.9c0.1-0.2,0.2-0.3,0.5-0.3h0.3c0.3,0,0.4,0.1,0.5,0.3l8.6,18.9c0.2,0.4-0.1,0.7-0.5,0.7
				h-2.4c-0.4,0-0.6-0.2-0.8-0.6l-1.4-3h-8.4l-1.4,3c-0.1,0.3-0.4,0.6-0.8,0.6h-2.4C291.1,48.4,290.9,48,291.1,47.7z M303.2,41.7
				l-2.8-6.2h-0.1l-2.8,6.2H303.2z"/>
			<path class="st1" d="M323.6,28.5c2.8,0,4.9,0.9,6.8,2.6c0.3,0.2,0.3,0.6,0,0.8l-1.7,1.8c-0.2,0.2-0.5,0.2-0.7,0
				c-1.2-1-2.8-1.7-4.3-1.7c-3.6,0-6.3,3-6.3,6.5c0,3.5,2.7,6.5,6.3,6.5c1.7,0,3.1-0.6,4.3-1.6c0.2-0.2,0.5-0.2,0.7,0l1.7,1.8
				c0.2,0.2,0.2,0.6,0,0.8c-1.9,1.9-4.3,2.7-6.8,2.7c-5.6,0-10.1-4.5-10.1-10.1S318,28.5,323.6,28.5z"/>
			<path class="st1" d="M336.9,29.3c0-0.3,0.3-0.5,0.5-0.5h2.6c0.3,0,0.5,0.3,0.5,0.5v7.4h9.1v-7.4c0-0.3,0.2-0.5,0.5-0.5h2.6
				c0.3,0,0.5,0.3,0.5,0.5v18.6c0,0.3-0.3,0.5-0.5,0.5h-2.6c-0.3,0-0.5-0.3-0.5-0.5v-7.7h-9.1v7.7c0,0.3-0.2,0.5-0.5,0.5h-2.6
				c-0.3,0-0.5-0.3-0.5-0.5V29.3z"/>
			<path class="st1" d="M361.3,29.3c0-0.3,0.2-0.5,0.5-0.5h11.4c0.3,0,0.5,0.3,0.5,0.5v2.3c0,0.3-0.2,0.5-0.5,0.5h-8.3v4.6h6.9
				c0.3,0,0.5,0.3,0.5,0.5v2.3c0,0.3-0.3,0.5-0.5,0.5h-6.9V45h8.3c0.3,0,0.5,0.3,0.5,0.5v2.3c0,0.3-0.2,0.5-0.5,0.5h-11.4
				c-0.3,0-0.5-0.3-0.5-0.5V29.3z"/>
		</g>
		<g>
			<g>
				<path class="st2" d="M936.7,71.6h-10.5c-0.5,0-1,0.4-1,1v2c0,0.5,0.4,1,1,1h3.2v13c0,0.5,0.4,1,1,1h2.2c0.5,0,1-0.4,1-1v-13h3.2
					c0.5,0,1-0.4,1-1v-2C937.7,72.1,937.2,71.6,936.7,71.6z"/>
				<path class="st2" d="M960,88.3l-2.8-16.1c-0.1-0.5-0.4-0.8-0.9-0.8h-0.4c-0.4,0-0.7,0.2-0.9,0.5l-4.9,10.5l-4.9-10.5
					c-0.2-0.3-0.5-0.5-0.9-0.5H944c-0.5,0-0.9,0.3-0.9,0.8l-2.9,16.2c0,0.3,0,0.6,0.2,0.8c0.2,0.2,0.4,0.3,0.7,0.3h2.2
					c0.5,0,0.9-0.4,0.9-0.8l1.2-7.6l3.6,8c0.2,0.3,0.5,0.5,0.9,0.5h0.4c0.4,0,0.8-0.2,0.9-0.6l3.6-8l1.2,7.6
					c0.1,0.4,0.5,0.7,0.9,0.7h2.2c0.3,0,0.6-0.1,0.8-0.3C960,88.9,960,88.6,960,88.3z"/>
			</g>
			<g>
				<path class="st2" d="M322.4,139c-0.8-0.8-1.9-1.2-3-1.2c-1.1,0-2.1,0.4-2.9,1.1c-5.6,4.6-11.8,6.9-18.4,6.9
					c-15,0-26.7-12.1-26.7-27.6c0-15.6,11.7-27.9,26.6-27.9c6.6,0,13.3,2.6,18.4,7c0.9,0.8,1.9,1.3,3,1.3c1.1,0,2.2-0.5,3-1.4l7.8-8
					c0.9-0.9,1.4-2.1,1.3-3.3c0-1.2-0.6-2.4-1.5-3.2c-9.6-8.6-19.6-12.4-32.4-12.4c-26.6,0-48.3,21.7-48.3,48.3
					c0,12.9,5,25,14.1,34.1c9.1,9,21.2,14,34.2,14c12.5,0,23.8-4.5,32.6-13c0.9-0.9,1.4-2.2,1.4-3.5c0-1.1-0.5-2.1-1.3-2.8
					L322.4,139z"/>
				<path class="st2" d="M389.5,70.1c-12.9,0-25,5-34.1,14.1c-9,9.1-14,21.2-14,34.2c0,27,21.1,48.1,48.1,48.1c13,0,25.1-5,34.1-14
					c9.1-9,14.1-21.1,14.1-34.1C437.7,91.8,416.1,70.1,389.5,70.1z M389.5,145.8c-15.1,0-27.4-12.3-27.4-27.4
					c0-15.2,12.3-27.6,27.4-27.6c14.9,0,27.5,12.7,27.5,27.6C417,133.5,404.7,145.8,389.5,145.8z"/>
				<path class="st2" d="M534.3,101c0-16.3-13.4-29.6-30-29.6h-41.7c-2.4,0-4.4,2-4.4,4.4v84.9c0,2.4,2,4.4,4.4,4.4h11.8
					c2.4,0,4.4-2,4.4-4.4v-30.7h15l17.5,32.9c0.5,1.1,1.8,2.3,3.8,2.3h13.5c1.7,0,3.1-0.8,3.9-2.1c0.8-1.4,0.8-3.1,0-4.6l-16.5-30.7
					C527.4,122.6,534.3,112.4,534.3,101z M513.7,101.3c0,6-4.9,11.1-10.7,11.1H479V90.8H503C508.8,90.8,513.7,95.6,513.7,101.3z"/>
				<path class="st2" d="M591.1,71.4h-30.4c-2.3,0-4.3,2-4.3,4.4v84.9c0,2.4,2,4.4,4.3,4.4h30.4c25.9,0,47-21.1,47-47
					C638.1,92.4,617,71.4,591.1,71.4z M616.4,118.2c0,15.9-11.3,27.4-26.9,27.4h-12.6V90.9h12.6C605.1,90.9,616.4,102.4,616.4,118.2
					z"/>
				<path class="st2" d="M701.4,70.1c-12.9,0-25,5-34.1,14.1c-9,9.1-14,21.2-14,34.2c0,27,21.1,48.1,48.1,48.1c13,0,25.1-5,34.1-14
					c9.1-9,14.1-21.1,14.1-34.1C749.6,91.8,728,70.1,701.4,70.1z M701.4,145.8c-15.1,0-27.4-12.3-27.4-27.4
					c0-15.2,12.3-27.6,27.4-27.6c14.9,0,27.5,12.7,27.5,27.6C728.9,133.5,716.6,145.8,701.4,145.8z"/>
				<path class="st2" d="M843.4,73.4c-0.8-1.3-2.2-2-3.8-2h-13.1c-2.1,0-3.5,1.3-4,2.6l-23.3,52.1l-23.2-52c-0.5-1.3-2-2.7-4-2.7
					h-13.1c-1.6,0-3,0.7-3.8,2c-0.8,1.2-0.9,2.8-0.2,4.2l39.7,86.4c0.8,1.6,2.2,2.5,4,2.5h1.3c1.7,0,3.2-0.9,4-2.6l39.8-86.3
					C844.3,76.2,844.2,74.6,843.4,73.4z"/>
				<path class="st2" d="M922,159.1l-39.5-86.4c-0.3-0.6-1.3-2.5-4-2.5h-1.3c-1.7,0-3.2,0.9-4,2.6L833.3,159c-0.7,1.4-0.6,3,0.2,4.2
					c0.8,1.2,2.2,2,3.8,2h11.2c2.5,0,4.6-1.4,5.5-3.7l5.8-12.7h35.8l5.8,12.7c0.9,1.8,2.3,3.7,5.5,3.7H918c1.6,0,3-0.7,3.8-2
					C922.6,162,922.6,160.5,922,159.1z M887.4,130.6h-19.6l9.7-21.8L887.4,130.6z"/>
			</g>
		</g>
	</g>
</g>
</svg>
