<?xml version="1.0" encoding="utf-8"?>
<!-- Generator: Adobe Illustrator 19.1.0, SVG Export Plug-In . SVG Version: 6.00 Build 0)  -->
<svg version="1.1" id="Layer_1" xmlns="http://www.w3.org/2000/svg" xmlns:xlink="http://www.w3.org/1999/xlink" x="0px" y="0px"
	 viewBox="0 0 139.5 30.8" style="enable-background:new 0 0 139.5 30.8;" xml:space="preserve">
<style type="text/css">
	.st0{fill:#F0B443;}
</style>
<g>
	<g>
		<path class="st0" d="M0.4,7h1.2l0.6-1.8H5L5.6,7h1.3L4.3,0.2H3L0.4,7z M3.6,1.3L3.6,1.3l1.1,2.9H2.6L3.6,1.3z"/>
		<path class="st0" d="M7.7,7h1.2V4.4h1.8c0.5,0,0.9-0.1,1.2-0.2c0.3-0.1,0.5-0.3,0.7-0.5C12.8,3.4,12.9,3.2,13,3
			c0.1-0.2,0.1-0.5,0.1-0.7c0-0.2,0-0.4-0.1-0.7c-0.1-0.2-0.2-0.5-0.3-0.7c-0.2-0.2-0.4-0.4-0.7-0.5c-0.3-0.1-0.7-0.2-1.2-0.2h-3V7z
			 M8.9,1.1h1.8c0.2,0,0.3,0,0.5,0c0.1,0,0.3,0.1,0.4,0.2c0.1,0.1,0.2,0.2,0.3,0.3c0.1,0.1,0.1,0.3,0.1,0.6c0,0.2,0,0.4-0.1,0.5
			c-0.1,0.1-0.2,0.3-0.3,0.3c-0.1,0.1-0.2,0.1-0.4,0.2c-0.1,0-0.3,0.1-0.4,0.1H8.9V1.1z"/>
		<path class="st0" d="M12.9,7h1.2l0.6-1.8h2.7L18.1,7h1.3l-2.6-6.8h-1.3L12.9,7z M16.1,1.3L16.1,1.3l1.1,2.9h-2.1L16.1,1.3z"/>
		<path class="st0" d="M25.8,2.3c0-0.4-0.1-0.7-0.3-1c-0.2-0.3-0.4-0.5-0.6-0.7c-0.3-0.2-0.6-0.4-0.9-0.5C23.6,0.1,23.2,0,22.9,0
			c-0.5,0-1,0.1-1.4,0.3c-0.4,0.2-0.7,0.5-1,0.8c-0.3,0.3-0.5,0.7-0.6,1.1c-0.2,0.4-0.2,0.9-0.2,1.4c0,0.5,0.1,1,0.2,1.4
			c0.1,0.4,0.4,0.8,0.6,1.1c0.3,0.3,0.6,0.6,1,0.8c0.4,0.2,0.9,0.3,1.4,0.3c0.4,0,0.8-0.1,1.1-0.2c0.3-0.1,0.6-0.3,0.9-0.6
			c0.3-0.2,0.5-0.5,0.6-0.9c0.1-0.3,0.2-0.7,0.3-1.1h-1.2c0,0.2-0.1,0.5-0.2,0.7c-0.1,0.2-0.2,0.4-0.3,0.6c-0.1,0.2-0.3,0.3-0.5,0.4
			c-0.2,0.1-0.4,0.1-0.7,0.1c-0.4,0-0.7-0.1-0.9-0.2c-0.3-0.1-0.5-0.3-0.6-0.6c-0.2-0.2-0.3-0.5-0.4-0.8c-0.1-0.3-0.1-0.6-0.1-1
			s0-0.6,0.1-1C21,2.3,21.1,2,21.3,1.8c0.2-0.2,0.4-0.4,0.6-0.6C22.2,1.1,22.5,1,22.9,1c0.2,0,0.5,0,0.7,0.1
			c0.2,0.1,0.4,0.2,0.5,0.3c0.1,0.1,0.3,0.3,0.3,0.4c0.1,0.2,0.2,0.3,0.2,0.5H25.8z"/>
		<path class="st0" d="M27,7h1.2V3.9h3.1V7h1.2V0.2h-1.2v2.7h-3.1V0.2H27V7z"/>
		<path class="st0" d="M34,7h5V6h-3.8V4h3.4V3h-3.4V1.2h3.7v-1H34V7z"/>
		<path class="st0" d="M14.6,14.6c-0.4-0.6-0.8-1.1-1.4-1.5c-0.5-0.4-1.1-0.7-1.8-0.9c-0.7-0.2-1.3-0.3-2.1-0.3
			c-1.3,0-2.4,0.2-3.4,0.7s-1.7,1.2-2.3,2c-0.6,0.8-1,1.8-1.3,2.8c-0.3,1-0.4,2.1-0.4,3.2c0,1.1,0.1,2.1,0.4,3.2
			c0.3,1,0.7,2,1.3,2.8C4.2,27.4,5,28,6,28.5C6.9,29,8,29.3,9.3,29.3c0.9,0,1.8-0.2,2.5-0.5c0.7-0.3,1.4-0.8,1.9-1.4
			c0.5-0.6,1-1.2,1.3-2c0.3-0.8,0.5-1.6,0.6-2.5h1.9c-0.1,1.2-0.4,2.3-0.9,3.3c-0.4,1-1,1.8-1.7,2.5c-0.7,0.7-1.5,1.2-2.5,1.6
			c-1,0.4-2,0.6-3.2,0.6c-1.6,0-2.9-0.3-4.1-0.8c-1.2-0.6-2.1-1.3-2.9-2.3s-1.4-2-1.7-3.3C0.2,23.2,0,21.9,0,20.6
			c0-1.4,0.2-2.7,0.6-3.9c0.4-1.2,1-2.3,1.7-3.3c0.8-1,1.8-1.7,2.9-2.3c1.2-0.6,2.5-0.8,4.1-0.8c0.9,0,1.9,0.1,2.8,0.4
			c0.9,0.3,1.7,0.7,2.4,1.2c0.7,0.5,1.3,1.2,1.8,2c0.5,0.8,0.8,1.7,0.9,2.7h-1.9C15.3,15.9,15,15.2,14.6,14.6z"/>
		<path class="st0" d="M22.4,23.7c0.3,1,0.7,2,1.3,2.8c0.6,0.8,1.4,1.5,2.3,2c0.9,0.5,2.1,0.7,3.4,0.7c1.3,0,2.4-0.2,3.4-0.7
			c0.9-0.5,1.7-1.2,2.3-2c0.6-0.8,1-1.8,1.3-2.8c0.3-1,0.4-2.1,0.4-3.2c0-1.1-0.1-2.2-0.4-3.2c-0.3-1-0.7-2-1.3-2.8
			c-0.6-0.8-1.4-1.5-2.3-2c-0.9-0.5-2.1-0.7-3.4-0.7c-1.3,0-2.4,0.2-3.4,0.7c-0.9,0.5-1.7,1.2-2.3,2c-0.6,0.8-1,1.8-1.3,2.8
			c-0.3,1-0.4,2.1-0.4,3.2C21.9,21.6,22.1,22.7,22.4,23.7z M20.6,16.6c0.4-1.2,1-2.3,1.7-3.3c0.8-1,1.8-1.7,2.9-2.3
			c1.2-0.6,2.5-0.8,4.1-0.8c1.6,0,2.9,0.3,4.1,0.8c1.2,0.6,2.1,1.3,2.9,2.3c0.8,1,1.4,2,1.7,3.3c0.4,1.2,0.6,2.5,0.6,3.9
			c0,1.4-0.2,2.7-0.6,3.9c-0.4,1.2-1,2.3-1.7,3.3s-1.7,1.7-2.9,2.3c-1.2,0.6-2.5,0.8-4.1,0.8c-1.6,0-2.9-0.3-4.1-0.8
			c-1.2-0.6-2.1-1.3-2.9-2.3s-1.4-2-1.7-3.3c-0.4-1.2-0.6-2.5-0.6-3.9C20,19.2,20.2,17.9,20.6,16.6z"/>
		<path class="st0" d="M51.2,20.1c0.6,0,1.1-0.1,1.6-0.3c0.5-0.2,1-0.4,1.4-0.8c0.4-0.3,0.7-0.7,0.9-1.2c0.2-0.5,0.3-1,0.3-1.6
			c0-1.2-0.4-2.2-1.1-2.9c-0.7-0.7-1.8-1.1-3.2-1.1h-7v7.8H51.2z M51.3,10.6c0.8,0,1.6,0.1,2.3,0.3c0.7,0.2,1.4,0.5,1.9,0.9
			c0.5,0.4,1,1,1.3,1.6c0.3,0.7,0.5,1.4,0.5,2.3c0,1.3-0.3,2.3-1,3.3c-0.6,0.9-1.6,1.5-2.9,1.8v0.1c0.6,0.1,1.2,0.3,1.6,0.5
			c0.4,0.2,0.8,0.6,1,1c0.3,0.4,0.5,0.8,0.6,1.3c0.1,0.5,0.2,1.1,0.2,1.7c0,0.3,0,0.7,0.1,1.2c0,0.5,0.1,1,0.1,1.5
			c0.1,0.5,0.1,1,0.3,1.4c0.1,0.4,0.3,0.8,0.5,1h-2.1c-0.1-0.2-0.2-0.4-0.3-0.7c-0.1-0.3-0.1-0.5-0.1-0.8c0-0.3-0.1-0.6-0.1-0.8
			c0-0.3,0-0.5-0.1-0.7c0-0.7-0.1-1.4-0.2-2.1c-0.1-0.7-0.3-1.3-0.5-1.9c-0.3-0.5-0.7-1-1.2-1.3c-0.5-0.3-1.2-0.5-2.1-0.4h-7.2v8.8
			h-1.9V10.6H51.3z"/>
		<path class="st0" d="M68.2,10.6c3,0.1,5.3,0.9,6.8,2.5c1.5,1.6,2.3,4.1,2.3,7.4c0,3.3-0.8,5.7-2.3,7.4c-1.5,1.6-3.8,2.5-6.8,2.5
			h-6.9V10.6H68.2z M67.2,28.8c1.4,0,2.6-0.2,3.7-0.5c1-0.3,1.9-0.8,2.5-1.5c0.7-0.7,1.2-1.5,1.5-2.6c0.3-1.1,0.5-2.3,0.5-3.8
			c0-1.5-0.2-2.7-0.5-3.8c-0.3-1.1-0.8-1.9-1.5-2.6c-0.7-0.7-1.5-1.2-2.5-1.5s-2.3-0.5-3.7-0.5h-4v16.6H67.2z"/>
		<path class="st0" d="M82.3,23.7c0.3,1,0.7,2,1.3,2.8c0.6,0.8,1.4,1.5,2.3,2c0.9,0.5,2.1,0.7,3.4,0.7c1.3,0,2.4-0.2,3.4-0.7
			c0.9-0.5,1.7-1.2,2.3-2c0.6-0.8,1-1.8,1.3-2.8c0.3-1,0.4-2.1,0.4-3.2c0-1.1-0.1-2.2-0.4-3.2c-0.3-1-0.7-2-1.3-2.8
			c-0.6-0.8-1.4-1.5-2.3-2c-0.9-0.5-2.1-0.7-3.4-0.7c-1.3,0-2.4,0.2-3.4,0.7c-0.9,0.5-1.7,1.2-2.3,2c-0.6,0.8-1,1.8-1.3,2.8
			c-0.3,1-0.4,2.1-0.4,3.2C81.8,21.6,82,22.7,82.3,23.7z M80.5,16.6c0.4-1.2,1-2.3,1.7-3.3c0.8-1,1.8-1.7,2.9-2.3
			c1.2-0.6,2.5-0.8,4.1-0.8s2.9,0.3,4.1,0.8c1.2,0.6,2.1,1.3,2.9,2.3c0.8,1,1.4,2,1.7,3.3c0.4,1.2,0.6,2.5,0.6,3.9
			c0,1.4-0.2,2.7-0.6,3.9c-0.4,1.2-1,2.3-1.7,3.3s-1.7,1.7-2.9,2.3c-1.2,0.6-2.5,0.8-4.1,0.8s-2.9-0.3-4.1-0.8
			c-1.2-0.6-2.1-1.3-2.9-2.3s-1.4-2-1.7-3.3c-0.4-1.2-0.6-2.5-0.6-3.9C79.9,19.2,80.1,17.9,80.5,16.6z"/>
		<path class="st0" d="M101.2,10.6l6.4,17.7h0.1l6.4-17.7h2l-7.3,19.8h-2.2l-7.3-19.8H101.2z"/>
		<path class="st0" d="M127.3,22.7l-3.8-10.2l-4,10.2H127.3z M124.6,10.6l7.8,19.8h-2l-2.4-6.2h-9l-2.4,6.2h-2l8-19.8H124.6z"/>
		<path class="st0" d="M130.6,11.6v-0.8h3.5v0.8h-1.3v3.5h-1v-3.5H130.6z"/>
		<path class="st0" d="M136.2,10.8l1,3h0l1-3h1.3v4.3h-0.9V12h0l-1.1,3.1h-0.7l-1.1-3h0v3h-0.9v-4.3H136.2z"/>
	</g>
</g>
</svg>
