<?xml version="1.0" encoding="utf-8"?>
<!-- Generator: Adobe Illustrator 19.1.0, SVG Export Plug-In . SVG Version: 6.00 Build 0)  -->
<svg version="1.1" id="Layer_1" xmlns="http://www.w3.org/2000/svg" xmlns:xlink="http://www.w3.org/1999/xlink" x="0px" y="0px"
	 viewBox="0 0 215 50" style="enable-background:new 0 0 215 50;" xml:space="preserve">
<style type="text/css">
	.st0{fill:#E6E6E5;}
	.st1{fill:#F0B443;}
</style>
<g>
	<g>
		<g>
			<path class="st0" d="M38.3,23.4c-0.5,0-0.9,1.5-0.9,3.4c0,1.9,0.4,3.4,0.9,3.4s0.9-1.5,0.9-3.4C39.2,24.9,38.8,23.4,38.3,23.4z
				 M43.3,5.6H21.2L12,20.4l3.7,24h6.6l-0.5-5.5H25l0.5,5.5h13.6l0.5-5.5h3.2l-0.5,5.5h6.6l3.7-24L43.3,5.6z M43.3,35.1H21.2
				l-1.8-14.7l3.7-7.4H29l-0.4,2.8H36L35.6,13h5.9l3.7,7.4L43.3,35.1z M26.6,23.7c-0.5,0-0.9,1.5-0.9,3.4c0,1.9,0.4,3.4,0.9,3.4
				c0.5,0,0.9-1.5,0.9-3.4C27.6,25.2,27.1,23.7,26.6,23.7z"/>
		</g>
	</g>
	<g>
		<path class="st1" d="M65.5,16.6h1.2l0.6-1.8h2.7l0.6,1.8h1.3l-2.6-6.8h-1.3L65.5,16.6z M68.8,10.9L68.8,10.9l1.1,2.9h-2.1
			L68.8,10.9z"/>
		<path class="st1" d="M72.9,16.6h1.2V14h1.8c0.5,0,0.9-0.1,1.2-0.2c0.3-0.1,0.5-0.3,0.7-0.5c0.2-0.2,0.3-0.4,0.3-0.7
			c0.1-0.2,0.1-0.5,0.1-0.7c0-0.2,0-0.4-0.1-0.7c-0.1-0.2-0.2-0.5-0.3-0.7c-0.2-0.2-0.4-0.4-0.7-0.5c-0.3-0.1-0.7-0.2-1.2-0.2h-3
			V16.6z M74.1,10.7h1.8c0.2,0,0.3,0,0.5,0c0.1,0,0.3,0.1,0.4,0.2c0.1,0.1,0.2,0.2,0.3,0.3c0.1,0.1,0.1,0.3,0.1,0.6
			c0,0.2,0,0.4-0.1,0.5c-0.1,0.1-0.2,0.3-0.3,0.3c-0.1,0.1-0.2,0.1-0.4,0.2c-0.1,0-0.3,0.1-0.4,0.1h-1.8V10.7z"/>
		<path class="st1" d="M78,16.6h1.2l0.6-1.8h2.7l0.6,1.8h1.3l-2.6-6.8h-1.3L78,16.6z M81.3,10.9L81.3,10.9l1.1,2.9h-2.1L81.3,10.9z"
			/>
		<path class="st1" d="M90.9,11.9c0-0.4-0.1-0.7-0.3-1c-0.2-0.3-0.4-0.5-0.6-0.7c-0.3-0.2-0.6-0.4-0.9-0.5c-0.3-0.1-0.7-0.2-1.1-0.2
			c-0.5,0-1,0.1-1.4,0.3c-0.4,0.2-0.7,0.5-1,0.8c-0.3,0.3-0.5,0.7-0.6,1.1c-0.2,0.4-0.2,0.9-0.2,1.4c0,0.5,0.1,1,0.2,1.4
			c0.1,0.4,0.4,0.8,0.6,1.1c0.3,0.3,0.6,0.6,1,0.8c0.4,0.2,0.9,0.3,1.4,0.3c0.4,0,0.8-0.1,1.1-0.2s0.6-0.3,0.9-0.6
			c0.3-0.2,0.5-0.5,0.6-0.9c0.1-0.3,0.2-0.7,0.3-1.1h-1.2c0,0.2-0.1,0.5-0.2,0.7c-0.1,0.2-0.2,0.4-0.3,0.6c-0.1,0.2-0.3,0.3-0.5,0.4
			c-0.2,0.1-0.4,0.1-0.7,0.1c-0.4,0-0.7-0.1-0.9-0.2c-0.3-0.1-0.5-0.3-0.6-0.6c-0.2-0.2-0.3-0.5-0.4-0.8c-0.1-0.3-0.1-0.6-0.1-1
			s0-0.6,0.1-1c0.1-0.3,0.2-0.6,0.4-0.8c0.2-0.2,0.4-0.4,0.6-0.6c0.3-0.1,0.6-0.2,0.9-0.2c0.2,0,0.5,0,0.7,0.1
			c0.2,0.1,0.4,0.2,0.5,0.3c0.1,0.1,0.3,0.3,0.3,0.4c0.1,0.2,0.2,0.3,0.2,0.5H90.9z"/>
		<path class="st1" d="M92.1,16.6h1.2v-3.1h3.1v3.1h1.2V9.7h-1.2v2.7h-3.1V9.7h-1.2V16.6z"/>
		<path class="st1" d="M99.1,16.6h5v-1h-3.8v-2h3.4v-1h-3.4v-1.8h3.7v-1h-4.9V16.6z"/>
		<path class="st1" d="M79.7,24.2c-0.4-0.6-0.8-1.1-1.4-1.5c-0.5-0.4-1.1-0.7-1.8-0.9c-0.7-0.2-1.3-0.3-2.1-0.3
			c-1.3,0-2.4,0.2-3.4,0.7c-0.9,0.5-1.7,1.2-2.3,2c-0.6,0.8-1,1.8-1.3,2.8C67.2,28,67,29,67,30.1c0,1.1,0.1,2.1,0.4,3.2
			c0.3,1,0.7,2,1.3,2.8c0.6,0.8,1.4,1.5,2.3,2c0.9,0.5,2.1,0.7,3.4,0.7c0.9,0,1.8-0.2,2.5-0.5c0.7-0.3,1.4-0.8,1.9-1.4
			c0.5-0.6,1-1.2,1.3-2c0.3-0.8,0.5-1.6,0.6-2.5h1.9c-0.1,1.2-0.4,2.3-0.9,3.3c-0.4,1-1,1.8-1.7,2.5c-0.7,0.7-1.5,1.2-2.5,1.6
			c-1,0.4-2,0.6-3.2,0.6c-1.6,0-2.9-0.3-4.1-0.8c-1.2-0.6-2.1-1.3-2.9-2.3s-1.4-2-1.7-3.3c-0.4-1.2-0.6-2.5-0.6-3.9
			c0-1.4,0.2-2.7,0.6-3.9c0.4-1.2,1-2.3,1.7-3.3c0.8-1,1.8-1.7,2.9-2.3c1.2-0.6,2.5-0.8,4.1-0.8c0.9,0,1.9,0.1,2.8,0.4
			c0.9,0.3,1.7,0.7,2.4,1.2c0.7,0.5,1.3,1.2,1.8,2c0.5,0.8,0.8,1.7,0.9,2.7h-1.9C80.4,25.5,80.1,24.8,79.7,24.2z"/>
		<path class="st1" d="M87.5,33.3c0.3,1,0.7,2,1.3,2.8c0.6,0.8,1.4,1.5,2.3,2s2.1,0.7,3.4,0.7c1.3,0,2.4-0.2,3.4-0.7
			c0.9-0.5,1.7-1.2,2.3-2c0.6-0.8,1-1.8,1.3-2.8c0.3-1,0.4-2.1,0.4-3.2c0-1.1-0.1-2.2-0.4-3.2c-0.3-1-0.7-2-1.3-2.8
			c-0.6-0.8-1.4-1.5-2.3-2c-0.9-0.5-2.1-0.7-3.4-0.7c-1.3,0-2.4,0.2-3.4,0.7c-0.9,0.5-1.7,1.2-2.3,2c-0.6,0.8-1,1.8-1.3,2.8
			c-0.3,1-0.4,2.1-0.4,3.2C87.1,31.2,87.2,32.3,87.5,33.3z M85.8,26.2c0.4-1.2,1-2.3,1.7-3.3c0.8-1,1.8-1.7,2.9-2.3
			c1.2-0.6,2.5-0.8,4.1-0.8s2.9,0.3,4.1,0.8c1.2,0.6,2.1,1.3,2.9,2.3c0.8,1,1.4,2,1.7,3.3c0.4,1.2,0.6,2.5,0.6,3.9
			c0,1.4-0.2,2.7-0.6,3.9c-0.4,1.2-1,2.3-1.7,3.3s-1.7,1.7-2.9,2.3c-1.2,0.6-2.5,0.8-4.1,0.8s-2.9-0.3-4.1-0.8
			c-1.2-0.6-2.1-1.3-2.9-2.3s-1.4-2-1.7-3.3c-0.4-1.2-0.6-2.5-0.6-3.9C85.2,28.8,85.4,27.5,85.8,26.2z"/>
		<path class="st1" d="M116.3,29.6c0.6,0,1.1-0.1,1.6-0.3c0.5-0.2,1-0.4,1.4-0.8s0.7-0.7,0.9-1.2c0.2-0.5,0.3-1,0.3-1.6
			c0-1.2-0.4-2.2-1.1-2.9c-0.7-0.7-1.8-1.1-3.2-1.1h-7v7.8H116.3z M116.4,20.2c0.8,0,1.6,0.1,2.3,0.3c0.7,0.2,1.4,0.5,1.9,0.9
			c0.5,0.4,1,1,1.3,1.6c0.3,0.7,0.5,1.4,0.5,2.3c0,1.3-0.3,2.3-1,3.3c-0.6,0.9-1.6,1.5-2.9,1.8v0.1c0.6,0.1,1.2,0.3,1.6,0.5
			c0.4,0.2,0.8,0.6,1,1c0.3,0.4,0.5,0.8,0.6,1.3c0.1,0.5,0.2,1.1,0.2,1.7c0,0.3,0,0.7,0.1,1.2c0,0.5,0.1,1,0.1,1.5
			c0.1,0.5,0.1,1,0.3,1.4c0.1,0.4,0.3,0.8,0.5,1h-2.1c-0.1-0.2-0.2-0.4-0.3-0.7c-0.1-0.3-0.1-0.5-0.1-0.8c0-0.3-0.1-0.6-0.1-0.8
			c0-0.3,0-0.5-0.1-0.7c0-0.7-0.1-1.4-0.2-2.1c-0.1-0.7-0.3-1.3-0.5-1.9c-0.3-0.5-0.7-1-1.2-1.3c-0.5-0.3-1.2-0.5-2.1-0.4h-7.2V40
			h-1.9V20.2H116.4z"/>
		<path class="st1" d="M133.3,20.2c3,0.1,5.3,0.9,6.8,2.5c1.5,1.6,2.3,4.1,2.3,7.4c0,3.3-0.8,5.7-2.3,7.4c-1.5,1.6-3.8,2.5-6.8,2.5
			h-6.9V20.2H133.3z M132.4,38.4c1.4,0,2.6-0.2,3.7-0.5c1-0.3,1.9-0.8,2.5-1.5c0.7-0.7,1.2-1.5,1.5-2.6c0.3-1.1,0.5-2.3,0.5-3.8
			c0-1.5-0.2-2.7-0.5-3.8c-0.3-1.1-0.8-1.9-1.5-2.6c-0.7-0.7-1.5-1.2-2.5-1.5c-1-0.3-2.3-0.5-3.7-0.5h-4v16.6H132.4z"/>
		<path class="st1" d="M147.4,33.3c0.3,1,0.7,2,1.3,2.8c0.6,0.8,1.4,1.5,2.3,2c0.9,0.5,2.1,0.7,3.4,0.7c1.3,0,2.4-0.2,3.4-0.7
			c0.9-0.5,1.7-1.2,2.3-2c0.6-0.8,1-1.8,1.3-2.8c0.3-1,0.4-2.1,0.4-3.2c0-1.1-0.1-2.2-0.4-3.2c-0.3-1-0.7-2-1.3-2.8
			c-0.6-0.8-1.4-1.5-2.3-2c-0.9-0.5-2.1-0.7-3.4-0.7c-1.3,0-2.4,0.2-3.4,0.7c-0.9,0.5-1.7,1.2-2.3,2c-0.6,0.8-1,1.8-1.3,2.8
			c-0.3,1-0.4,2.1-0.4,3.2C147,31.2,147.1,32.3,147.4,33.3z M145.7,26.2c0.4-1.2,1-2.3,1.7-3.3c0.8-1,1.8-1.7,2.9-2.3
			c1.2-0.6,2.5-0.8,4.1-0.8s2.9,0.3,4.1,0.8c1.2,0.6,2.1,1.3,2.9,2.3c0.8,1,1.4,2,1.7,3.3c0.4,1.2,0.6,2.5,0.6,3.9
			c0,1.4-0.2,2.7-0.6,3.9c-0.4,1.2-1,2.3-1.7,3.3s-1.7,1.7-2.9,2.3c-1.2,0.6-2.5,0.8-4.1,0.8s-2.9-0.3-4.1-0.8
			c-1.2-0.6-2.1-1.3-2.9-2.3s-1.4-2-1.7-3.3c-0.4-1.2-0.6-2.5-0.6-3.9C145.1,28.8,145.3,27.5,145.7,26.2z"/>
		<path class="st1" d="M166.4,20.2l6.4,17.7h0.1l6.4-17.7h2L173.9,40h-2.2l-7.3-19.8H166.4z"/>
		<path class="st1" d="M192.4,32.3l-3.8-10.2l-4,10.2H192.4z M189.7,20.2l7.8,19.8h-2l-2.4-6.2h-9l-2.4,6.2h-2l8-19.8H189.7z"/>
		<path class="st1" d="M195.8,21.1v-0.8h3.5v0.8H198v3.5h-1v-3.5H195.8z"/>
		<path class="st1" d="M201.3,20.3l1,3h0l1-3h1.3v4.3h-0.9v-3.1h0l-1.1,3.1H202l-1.1-3h0v3H200v-4.3H201.3z"/>
	</g>
</g>
</svg>
