<?xml version="1.0" encoding="utf-8"?>
<!-- Generator: Adobe Illustrator 19.1.0, SVG Export Plug-In . SVG Version: 6.00 Build 0)  -->
<svg version="1.1" id="Layer_1" xmlns="http://www.w3.org/2000/svg" xmlns:xlink="http://www.w3.org/1999/xlink" x="0px" y="0px"
	 viewBox="0 0 187 49.1" style="enable-background:new 0 0 187 49.1;" xml:space="preserve">
<style type="text/css">
	.st0{fill:#333333;}
	.st1{fill:#FFFFFF;}
</style>
<g>
	<g>
		<g>
			<path class="st1" d="M98.9,25.4c0-3.4,2.8-5,2.9-5.1c-1.6-2.3-4-2.6-4.9-2.7c-2.1-0.2-4.1,1.2-5.2,1.2c-1.1,0-2.7-1.2-4.4-1.2
				c-2.3,0-4.4,1.3-5.6,3.4c-2.4,4.1-0.6,10.2,1.7,13.6c1.1,1.6,2.5,3.5,4.2,3.4c1.7-0.1,2.3-1.1,4.4-1.1c2.1,0,2.6,1.1,4.4,1.1
				c1.8,0,3-1.7,4.1-3.3c1.3-1.9,1.8-3.7,1.9-3.8C102.4,30.8,98.9,29.4,98.9,25.4L98.9,25.4z M95.5,15.4c0.9-1.1,1.6-2.7,1.4-4.3
				c-1.4,0.1-3,0.9-4,2c-0.9,1-1.6,2.6-1.4,4.2C93,17.4,94.5,16.5,95.5,15.4L95.5,15.4z M95.5,15.4"/>
		</g>
	</g>
	<g>
		<path class="st1" d="M15,19.7L15,19.7c-0.9,0-1.7,0.7-1.7,1.6v6.9c0,0.9,0.7,1.6,1.6,1.6H15c0.9,0,1.6-0.7,1.6-1.6v-6.9
			C16.5,20.4,15.8,19.7,15,19.7L15,19.7z M15,19.7"/>
		<g>
			<path class="st1" d="M17.3,30.9c0,0.8,0.7,1.5,1.5,1.5h1.6V36c0,0.9,0.7,1.6,1.6,1.6H22c0.9,0,1.6-0.7,1.6-1.6v-3.7h2.2V36
				c0,0.9,0.7,1.6,1.6,1.6h0.1c0.9,0,1.6-0.7,1.6-1.6v-3.7h1.6c0.8,0,1.5-0.6,1.5-1.5V20H17.3V30.9z M17.3,30.9"/>
			<path class="st1" d="M28.3,13.4l1.2-1.9c0.1-0.1,0-0.3-0.1-0.4c-0.1-0.1-0.3,0-0.4,0.1l-1.3,2c-1-0.4-2-0.6-3.2-0.6
				c-1.1,0-2.2,0.2-3.2,0.6l-1.3-2c-0.1-0.1-0.2-0.2-0.4-0.1c-0.1,0.1-0.2,0.2-0.1,0.4l1.2,1.9c-2.2,1.1-3.7,3.2-3.7,5.5
				c0,0.1,0,0.3,0,0.4H32c0-0.1,0-0.3,0-0.4C32,16.5,30.5,14.5,28.3,13.4L28.3,13.4z M21.2,16.8c-0.4,0-0.7-0.3-0.7-0.7
				c0-0.4,0.3-0.7,0.7-0.7c0.4,0,0.7,0.3,0.7,0.7C21.9,16.5,21.6,16.8,21.2,16.8L21.2,16.8z M28.1,16.8c-0.4,0-0.7-0.3-0.7-0.7
				c0-0.4,0.3-0.7,0.7-0.7c0.4,0,0.7,0.3,0.7,0.7C28.8,16.5,28.4,16.8,28.1,16.8L28.1,16.8z M28.1,16.8"/>
			<path class="st1" d="M34.4,19.7L34.4,19.7c-0.9,0-1.7,0.7-1.7,1.6v6.9c0,0.9,0.7,1.6,1.6,1.6h0.1c0.9,0,1.6-0.7,1.6-1.6v-6.9
				C36,20.4,35.3,19.7,34.4,19.7L34.4,19.7z M34.4,19.7"/>
		</g>
	</g>
	<g>
		<path class="st1" d="M144,23.6l0-8.8l10.8-1.5v10.2H144z M156.6,13.2l14.4-2.1v12.6h-14.4V13.2z M171,25.4l0,12.6l-14.4-2V25.4
			H171z M154.8,35.8L144,34.3l0-8.8h10.8V35.8z M154.8,35.8"/>
	</g>
</g>
</svg>
