<?xml version="1.0" encoding="utf-8"?>
<!-- Generator: Adobe Illustrator 19.1.0, SVG Export Plug-In . SVG Version: 6.00 Build 0)  -->
<svg version="1.1" id="Layer_1" xmlns="http://www.w3.org/2000/svg" xmlns:xlink="http://www.w3.org/1999/xlink" x="0px" y="0px"
	 viewBox="0 0 30 60.3" style="enable-background:new 0 0 30 60.3;" xml:space="preserve">
<style type="text/css">
	.st0{fill:#CDCCCC;}
</style>
<path class="st0" d="M26.2,18.5c-4.1-4.1-10.8-4.1-15,0c-3.5,3.5-4,9-1.5,13.1c-0.2,0.1-0.3,0.2-0.5,0.4l-6.9,6.9
	c-1.2,1.2-1.2,3.1,0,4.2c0.6,0.6,1.4,0.9,2.1,0.9s1.5-0.3,2.1-0.9l6.9-6.9c0.2-0.2,0.4-0.5,0.5-0.7c1.5,0.7,3.1,1.1,4.7,1.1
	c2.7,0,5.4-1,7.5-3.1c2-2,3.1-4.7,3.1-7.5S28.2,20.5,26.2,18.5z M23.4,30.6c-1.2,1.2-2.9,1.9-4.7,1.9c-1.8,0-3.4-0.7-4.7-1.9
	c-2.6-2.6-2.6-6.7,0-9.3c1.2-1.2,2.9-1.9,4.7-1.9c1.8,0,3.4,0.7,4.7,1.9c1.2,1.2,1.9,2.9,1.9,4.7C25.3,27.7,24.6,29.4,23.4,30.6z"/>
</svg>
