<?xml version="1.0" encoding="utf-8"?>
<!-- Generator: Adobe Illustrator 19.2.0, SVG Export Plug-In . SVG Version: 6.00 Build 0)  -->
<svg version="1.1" xmlns="http://www.w3.org/2000/svg" xmlns:xlink="http://www.w3.org/1999/xlink" x="0px" y="0px"
	 viewBox="0 0 540 49.1" style="enable-background:new 0 0 540 49.1;" xml:space="preserve">
<style type="text/css">
	.st0{display:none;}
	.st1{display:inline;fill:#FFDE17;}
	.st2{display:inline;fill:#F26522;}
	.st3{fill:#333333;}
	.st4{fill:none;}
	.st5{clip-path:url(#SVGID_2_);}
	.st6{clip-path:url(#SVGID_4_);fill:#F6F6F6;}
	.st7{clip-path:url(#SVGID_6_);}
	.st8{clip-path:url(#SVGID_8_);fill:#424242;}
	.st9{clip-path:url(#SVGID_10_);}
	.st10{clip-path:url(#SVGID_12_);fill:#F0EFF1;}
	.st11{fill:none;stroke:#000000;stroke-width:0.4279;stroke-miterlimit:10;}
</style>
<g id="Layer_1">
	<g class="st0">
		<rect class="st1" width="49.1" height="49.1"/>
		<rect x="49.1" class="st2" width="49.1" height="49.1"/>
		<rect x="98.1" class="st1" width="49.1" height="49.1"/>
		<rect x="147.2" class="st2" width="49.1" height="49.1"/>
		<rect x="196.3" class="st1" width="49.1" height="49.1"/>
		<rect x="245.4" class="st2" width="49.1" height="49.1"/>
		<rect x="294.4" class="st1" width="49.1" height="49.1"/>
		<rect x="343.5" class="st2" width="49.1" height="49.1"/>
	</g>
	<g>
		<g>
			<path class="st3" d="M81,25.4c0-3.4,2.8-5,2.9-5.1c-1.6-2.3-4-2.6-4.9-2.7c-2.1-0.2-4.1,1.2-5.2,1.2s-2.7-1.2-4.4-1.2
				c-2.3,0-4.4,1.3-5.6,3.4c-2.4,4.1-0.6,10.2,1.7,13.6c1.1,1.6,2.5,3.5,4.2,3.4s2.3-1.1,4.4-1.1s2.6,1.1,4.4,1.1s3-1.7,4.1-3.3
				c1.3-1.9,1.8-3.7,1.9-3.8C84.5,30.8,81,29.5,81,25.4L81,25.4z M77.6,15.4c0.9-1.1,1.6-2.7,1.4-4.3c-1.4,0.1-3,0.9-4,2
				c-0.9,1-1.6,2.6-1.4,4.2C75.1,17.4,76.6,16.5,77.6,15.4L77.6,15.4z"/>
		</g>
	</g>
	<g>
		<g>
			<path class="st3" d="M160.8,14.6C159.2,16.2,158.6,16.8,160.8,14.6c0.5-0.5,0.9-0.9,0.9-0.9C161.7,13.6,161.3,14.1,160.8,14.6
				L160.8,14.6z"/>
			<path class="st3" d="M159.7,11.2c-0.2,0-0.4,0-0.6,0.1c-0.4-0.1-1,0.1-1,0.5c0,2.3-0.2,4.5-0.7,6.8c-0.1,0.2,0.2,0.3,0.4,0.3
				c2.3,0.1,7.3,0,8.1-2.9C167,12.2,162.2,11.8,159.7,11.2L159.7,11.2z M159.4,12c0.4,0.1,1,0.2,1.5,0.3c-0.3,0.1-0.6,0.4-0.9,0.7
				c-0.1,0.1-0.2,0.2-0.4,0.3c-0.1,0.1-0.2,0.2-0.2,0.3C159.4,13.1,159.4,12.6,159.4,12L159.4,12z M160.8,18
				c0.3-0.3,0.5-0.9,0.6-1.5s-0.3-0.7-0.8-0.2c-0.4,0.5-0.9,0.9-1.3,1.4c-0.1,0.1-0.2,0.3-0.3,0.4c-0.2,0-0.3,0-0.4,0
				c0.1-0.2,0.2-0.5,0.3-1c0.1-0.4,0.1-0.8,0.2-1.1c0.1,0,0.1-0.1,0.2-0.2c0.5-0.5,1-1,1.5-1.5s0.9-1.2,0.9-1.5c0-0.1,0-0.2-0.1-0.4
				c1.4,0.3,2.8,0.9,3.2,2.3C165.4,17,163,17.8,160.8,18L160.8,18z"/>
			<path class="st3" d="M164.7,25.8c1.5-3.6-4.1-4.2-6.2-4.7c-0.1,0-0.4,0-0.6,0.1c-0.4,0-1,0.2-1,0.5c0,2.3-0.2,4.5-0.7,6.7
				c0,0.2,0.2,0.2,0.4,0.3C159.2,28.8,163.5,28.6,164.7,25.8L164.7,25.8z M158.1,23.3c0.1-0.1,0.2-0.1,0.2-0.2
				c0.1-0.1,0.1-0.1,0.2-0.2c0.3-0.3,0.5-0.6,0.4-0.8c0.2,0,0.4,0.1,0.5,0.1c-0.2,0.2-0.5,0.5-0.8,0.8
				C158.5,23.1,158.3,23.3,158.1,23.3c0,0.2-0.1,0.3-0.1,0.3C158.1,23.5,158.1,23.4,158.1,23.3L158.1,23.3z M158.4,28
				c-0.5,0-0.8,0-1,0.1c0.1-0.1,0.1-0.2,0.2-0.4c0.1,0,0.1-0.1,0.2-0.2c0.6-0.5,1.1-1.1,1.7-1.6c0.5-0.5,1-1.4,1-2s-0.4-0.7-0.9-0.1
				c-0.5,0.5-0.9,1-1.4,1.5c-0.1,0.1-0.1,0.2-0.2,0.2c0.1-0.6,0.1-1.2,0.1-1.7c0.3-0.3,0.5-0.5,0.8-0.8s0.6-0.6,0.7-0.7
				c1.7,0.3,3.6,0.8,4,2.5C164.3,27.4,160.8,28,158.4,28L158.4,28z"/>
			<path class="st3" d="M180.9,16.1c-0.2,0-0.4,0-0.6,0.1c-0.4-0.1-0.9,0.1-0.9,0.5c0,2.3-0.2,4.5-0.7,6.7c-0.1,0.2,0.2,0.4,0.4,0.4
				c2.4,0.1,7.3,0,8.1-2.9C188.2,17.1,183.4,16.7,180.9,16.1L180.9,16.1z M180.8,23c-0.4,0-0.7,0-0.9,0.1c0.1-0.2,0.2-0.5,0.3-1
				c0-0.1,0-0.1,0-0.2c0.1,0,0.1-0.1,0.2-0.2c0.5-0.5,1-0.9,1.5-1.4s1-1.3,1-1.9c0-0.5-0.4-0.6-0.9-0.1c-0.4,0.4-0.8,0.8-1.2,1.1
				c-0.1,0.1-0.2,0.2-0.3,0.3c0.1-0.7,0.1-1.4,0.1-2.1c0,0,0,0,0.1-0.1c0.2-0.2,0.3-0.4,0.4-0.5c1.9,0.3,4.4,0.7,5,2.6
				C186.7,22.3,183.2,22.9,180.8,23L180.8,23z"/>
			<path class="st3" d="M177.8,33.8c2.5,0.1,7.5,0,8.1-3.2c0.7-3.7-4-4-6.5-4.6c-0.2-0.1-0.4,0-0.6,0.1c-0.4,0-0.8,0.2-0.8,0.5
				c0,2.3-0.2,4.5-0.7,6.7C177.3,33.6,177.6,33.8,177.8,33.8L177.8,33.8z M179.3,27.1l0.1-0.1c0.4,0.1,1,0.2,1.5,0.3
				c-0.2,0.2-0.5,0.4-0.8,0.7c-0.2,0.2-0.4,0.4-0.7,0.7c-0.1,0.1-0.2,0.2-0.2,0.3C179.3,28.3,179.3,27.7,179.3,27.1L179.3,27.1z
				 M178.9,32c0-0.3,0.1-0.5,0.1-0.8c0.1,0,0.1-0.1,0.2-0.2c0.5-0.5,1-1,1.5-1.5s0.9-1.3,0.9-1.6c0-0.2,0-0.3-0.1-0.4
				c1.6,0.4,3.1,1,3.2,2.6c0,2.3-3,2.8-5.2,2.8c-0.4,0-0.7,0-0.9,0.1C178.8,32.7,178.9,32.4,178.9,32L178.9,32z"/>
			<path class="st3" d="M176.8,15.9c1-3.8-3.7-4.2-6.3-4.7c-0.2,0-0.4,0-0.6,0.1c-0.4-0.1-1,0.1-1,0.4c0,2.3-0.2,4.5-0.7,6.7
				c-0.1,0.2,0.2,0.3,0.4,0.3C171,19,176,18.8,176.8,15.9L176.8,15.9z M170.5,18.1c-0.4,0-0.8,0-1,0.1c0.1-0.1,0.2-0.4,0.3-0.8
				l0.1-0.1c0.5-0.5,1.1-1.1,1.6-1.6s0.9-1.1,1-1.4c0-0.3-0.4-0.1-0.9,0.4s-1,1-1.5,1.5c-0.1,0.1-0.1,0.2-0.2,0.2
				c0.2-1.1,0.2-2.2,0.3-3.4l0.1-0.1c0.3-0.3,0.4-0.5,0.4-0.7c1.9,0.3,4.3,0.7,4.8,2.6C176.4,17.4,172.8,18,170.5,18.1L170.5,18.1z"
				/>
		</g>
		<path class="st3" d="M175.4,26.1c2-3.6-4-4.4-6-4.8c-0.1,0-0.4,0-0.6,0.1c-0.3,0-1.1,0.1-1.1,0.4c0,2.3-0.2,4.5-0.7,6.7
			c0,0.1,0.1,0.2,0.2,0.2C169.8,28.8,174,28.6,175.4,26.1L175.4,26.1z M174,26.5c-0.6,1-1.9,1.4-3.2,1.5c-0.1-0.1-0.1-0.1-0.1-0.2
			c0-0.2-0.2-0.1-0.4,0.2l-0.1,0.1c-0.6,0-1.1,0-1.6,0c0.1-0.1,0.2-0.2,0.4-0.4c0.3-0.3,0.5-0.5,0.8-0.8c0.2-0.2,0.4-0.4,0.6-0.7
			c0.4-0.4,0.6-0.7,0.6-0.7s-0.4,0.4-0.9,0.9c-0.4,0.4-0.8,0.8-1.2,1.2c-0.2,0.2-0.3,0.3-0.5,0.5l0,0c-0.1,0-0.1,0-0.2-0.1
			c0.1-0.1,0.3-0.3,0.4-0.4c0.5-0.5,1-1,1.4-1.4c0.5-0.5,1-1.4,1-2s-0.4-0.7-0.9-0.2s-0.9,0.9-1.4,1.4c-0.1,0.1-0.1,0.1-0.2,0.2l0,0
			c0.1-1.2,0.2-2.4,0.2-3.7c0,0,0-0.1,0.1-0.1C171.5,22.4,175.9,23.2,174,26.5L174,26.5z"/>
		<path class="st3" d="M166,37.9c2.6,0.2,6.9,0,8.1-2.9c1.5-3.6-4.1-4.2-6.2-4.7c-0.1,0-0.4,0-0.6,0.1c-0.4-0.1-1,0.1-1,0.4
			c0,2.3-0.2,4.5-0.7,6.7C165.5,37.8,165.8,37.9,166,37.9L166,37.9z M167.1,36.2c0.1-0.1,0.1-0.1,0.2-0.2c0.5-0.5,1-0.9,1.5-1.4
			s1-1,1-1.1s-0.4,0.2-0.9,0.8c-0.5,0.5-1,1-1.6,1.6c-0.1,0.1-0.1,0.1-0.2,0.2c0.2-1.3,0.3-2.7,0.4-4c0.1,0,0.1-0.1,0.2-0.1
			c0.3-0.3,0.4-0.6,0.4-0.7c1.9,0.3,4.3,0.7,4.8,2.6c0.6,2.2-1.5,3-3.6,3.3c0-0.1,0-0.2,0-0.3c0.1-0.4-0.3-0.3-0.8,0.2
			c-0.1,0.1-0.2,0.2-0.2,0.3c-0.2,0-0.4,0-0.6,0c-0.4,0-0.8,0-1,0.1C166.9,37.1,167,36.7,167.1,36.2L167.1,36.2z"/>
	</g>
	<g>
		<path class="st3" d="M14.9,19.9L14.9,19.9c-0.9,0-1.7,0.7-1.7,1.6v6.9c0,0.9,0.7,1.6,1.6,1.6h0.1c0.9,0,1.6-0.7,1.6-1.6v-6.9
			C16.4,20.6,15.7,19.9,14.9,19.9L14.9,19.9z"/>
		<g>
			<path class="st3" d="M17.2,31.1c0,0.8,0.7,1.5,1.5,1.5h1.6v3.7c0,0.9,0.7,1.6,1.6,1.6H22c0.9,0,1.6-0.7,1.6-1.6v-3.7h2.2v3.7
				c0,0.9,0.7,1.6,1.6,1.6h0.1c0.9,0,1.6-0.7,1.6-1.6v-3.7h1.6c0.8,0,1.5-0.6,1.5-1.5V20.2h-15C17.2,20.2,17.2,31.1,17.2,31.1z"/>
			<path class="st3" d="M28.2,13.6l1.2-1.9c0.1-0.1,0-0.3-0.1-0.4c-0.1-0.1-0.3,0-0.4,0.1l-1.3,2c-1-0.4-2-0.6-3.2-0.6
				c-1.1,0-2.2,0.2-3.2,0.6l-1.3-2c-0.1-0.1-0.2-0.2-0.4-0.1c-0.1,0.1-0.2,0.2-0.1,0.4l1.2,1.9c-2.2,1.1-3.7,3.2-3.7,5.5
				c0,0.1,0,0.3,0,0.4h14.7c0-0.1,0-0.3,0-0.4C31.9,16.7,30.4,14.7,28.2,13.6L28.2,13.6z M21.1,17c-0.4,0-0.7-0.3-0.7-0.7
				c0-0.4,0.3-0.7,0.7-0.7c0.4,0,0.7,0.3,0.7,0.7C21.8,16.7,21.5,17,21.1,17L21.1,17z M28,17c-0.4,0-0.7-0.3-0.7-0.7
				c0-0.4,0.3-0.7,0.7-0.7c0.4,0,0.7,0.3,0.7,0.7C28.7,16.7,28.3,17,28,17L28,17z"/>
			<path class="st3" d="M34.3,19.9L34.3,19.9c-0.9,0-1.7,0.7-1.7,1.6v6.9c0,0.9,0.7,1.6,1.6,1.6h0.1c0.9,0,1.6-0.7,1.6-1.6v-6.9
				C35.9,20.6,35.2,19.9,34.3,19.9L34.3,19.9z"/>
		</g>
	</g>
	<g>
		<path class="st3" d="M109.2,23.6v-8.8l10.8-1.5v10.2h-10.8V23.6z M121.8,13.2l14.4-2.1v12.6h-14.4
			C121.8,23.7,121.8,13.2,121.8,13.2z M136.2,25.4V38l-14.4-2V25.4H136.2z M120,35.8l-10.8-1.5v-8.8H120V35.8z"/>
	</g>
	<path class="st3" d="M220.9,9.4c-8.3,0-15.1,6.8-15.1,15.1s6.8,15.1,15.1,15.1S236,32.8,236,24.5S229.2,9.4,220.9,9.4z M224.2,14.6
		c0.6-1,1.8-1.3,2.8-0.7s1.3,1.8,0.7,2.8s-1.8,1.3-2.8,0.7C224,16.9,223.7,15.6,224.2,14.6z M210.6,26.6c-1.1,0-2-0.9-2-2s0.9-2,2-2
		s2,0.9,2,2S211.7,26.6,210.6,26.6z M212.3,26.7c0.7-0.5,1.1-1.3,1.1-2.2c0-0.9-0.4-1.7-1.1-2.2c0.5-2.1,1.9-3.9,3.6-5.1l1.5,2.5
		c-1.5,1.1-2.5,2.8-2.5,4.8s1,3.8,2.5,4.8l-1.5,2.5C214.2,30.6,212.9,28.8,212.3,26.7z M227,35.2c-1,0.5-2.2,0.2-2.8-0.7
		c-0.5-1-0.2-2.2,0.7-2.8c0.9-0.6,2.2-0.2,2.8,0.7C228.3,33.4,228,34.7,227,35.2z M227,30.8c-0.8-0.3-1.6-0.2-2.4,0.2
		c-0.7,0.4-1.2,1.2-1.4,2c-0.7,0.2-1.5,0.3-2.3,0.3c-1.4,0-2.7-0.3-3.9-0.9l1.4-2.5c0.8,0.4,1.6,0.5,2.5,0.5c3.1,0,5.6-2.3,5.8-5.4
		h2.9C229.4,27.3,228.5,29.3,227,30.8z M226.7,24c-0.3-3-2.8-5.4-5.9-5.4c-0.9,0-1.8,0.2-2.5,0.5l-1.4-2.5c1.2-0.6,2.5-0.9,3.9-0.9
		c0.8,0,1.6,0.1,2.3,0.3c0.1,0.8,0.6,1.6,1.4,2c0.8,0.4,1.6,0.5,2.4,0.2c1.5,1.5,2.5,3.5,2.6,5.7L226.7,24z"/>
	<g>
		<g>
			<path class="st3" d="M269.9,10.4c7.7,0,13.9,6.2,13.9,13.9s-6.2,13.9-13.9,13.9c-7.7,0-13.9-6.2-13.9-13.9
				C255.9,16.6,262.2,10.4,269.9,10.4 M269.9,9.4c-8.2,0-14.9,6.7-14.9,14.9s6.7,14.9,14.9,14.9c8.2,0,14.9-6.7,14.9-14.9
				S278.1,9.4,269.9,9.4L269.9,9.4z"/>
		</g>
		<g>
			<path class="st3" d="M281.7,15.2c0.1,0.2,0.3,0.4,0.4,0.6c0-0.4-0.1-0.9-0.4-1.3c-0.8-1.3-2.1-1.9-2.1-2
				C279.7,12.6,281.2,13.5,281.7,15.2z"/>
			<path class="st3" d="M281.2,33.1C281.2,33.1,281.2,33.2,281.2,33.1c0-0.1,0-0.2,0.1-0.2c0,0,0-0.1,0.1-0.1
				c0.1-0.1,0.1-0.2,0.2-0.3v0.1c0.2-0.4,0.5-0.7,0.8-1.1c0.6-0.7,1.2-1.3,1.5-2c0.1-0.1,0.2-0.3,0.2-0.5c0.8-1.6,1.7-4.4,1.3-7.1
				c-0.1-0.5-0.2-1-0.3-1.4v0.1c0,0,0,0,0-0.1v0.1c0.3,1.4,0.3,2.9-0.3,4c-0.4,0.6-0.8,1-1.1,1.1l0,0c0.1-0.2,0.1-0.3,0.2-0.5
				c0.8-2.4,1-5.3,0.1-7.8c-0.3-0.7-0.6-1.3-0.9-1.8c-0.5-0.8-1-1.4-1.4-1.6l0.1,0.1c-0.1-0.1-0.1-0.1-0.1-0.1
				c0.2,0.2,0.3,0.4,0.5,0.6c0.5,0.8,0.8,2.1,0.8,2.7c-1.5-2.5-3.9-4.9-7.6-6c2.9,1.9,3.9,3.5,4.6,4.9c-0.8-0.8-2.1-1.6-3-1.7
				c1.3,1,3.5,3.9,3.3,8.3c-0.6-1.5-1.4-2.2-1.4-2.2c0.1,1.4,0.4,3.4,0.1,5.2l0,0l0,0v0.1l0,0V26l0,0v0.1l0,0v0.1l0,0v0.1l0,0v0.1
				l0,0c0,0,0,0,0,0.1s-0.1,0.2-0.1,0.3l0,0c-0.2-0.7-0.4-1.1-0.4-1.1s-0.1,0.7-0.3,1.5c0,0.2-0.1,0.3-0.2,0.5l0,0
				c0,0.1,0,0.1-0.1,0.2l0,0c0,0.1-0.1,0.3-0.2,0.4l0,0c0,0.1-0.1,0.1-0.1,0.2l0,0c0,0.1-0.1,0.1-0.1,0.2c-0.3,0.7-0.6,1.2-0.9,1.6
				l0,0c-0.1,0.2-0.3,0.3-0.4,0.3l0,0c0,0,0,0-0.1,0l0,0c-0.1,0-0.1,0.1-0.2,0.1l0,0l0,0l0,0l0,0l0,0l0,0l0,0l0,0l0,0l0,0
				c0,0,0,0-0.1,0l0,0l0,0l0,0l0,0c0-0.2,0-0.4,0-0.5c0,0-0.3,0.1-0.5,0.4c-0.1,0.1-0.2,0.2-0.3,0.3l0.2-0.3
				c-0.1,0.1-0.2,0.2-0.3,0.3c-0.4,0.5-0.8,1-1,0.8c0.2-0.1,0.3-0.3,0.4-0.5c-0.2,0.1-0.6,0.4-1.6,0.6c-0.4,0.1-2.1,0.4-4.3-0.8
				c0.3,0,0.8-0.2,1.2,0.1c-0.4-0.4-1.3-0.3-1.9-0.5s-1.3-1-1.7-1.4l0,0c0.2,0,0.4,0.1,0.5,0.1h0.1l0,0c1.1,0.1,2.2,0,3-0.3
				c0.3-0.1,0.7-0.3,0.9-0.5c0.7-0.5,1.7-1.2,2.2-1.2c0,0,0,0,0.1,0c0.6,0.1,1-0.4,0.5-1c-0.4-0.5-1.5-1.2-3-0.8
				c-1.1,0.3-2.1,1.2-3.6,0.6c-0.1,0-0.2-0.1-0.3-0.1c-0.1,0,0.3,0.1,0.2,0c-0.3-0.1-0.9-0.4-1-0.5h0.2c-1.3-0.8-1.4-1.4-1.4-1.9
				c0-0.2,0.1-0.4,0.1-0.5c0.1-0.3,0.3-0.6,0.5-0.7l0,0l0,0c0.2,0.1,0.3,0.1,0.3,0.1S265,23,264.9,23l0,0c0.2,0.1,0.6,0.2,0.8,0.3
				c0.3,0.1,0.4,0.3,0.4,0.3s0.1,0,0-0.2c0-0.1-0.1-0.2-0.4-0.4l0,0c0.1,0.1,0.3,0.1,0.5,0.2c0.1-0.2,0.2-0.5,0.1-0.9
				c0-0.3,0-0.4-0.1-0.5s0-0.1,0.1-0.1c0-0.1-0.1-0.1-0.1-0.2l0,0c0.5-0.6,2.3-1.4,2.7-1.9c0-0.1,0.1-0.1,0.1-0.1l0,0
				c0.2-0.2,0.3-0.4,0.5-0.6c0.1-0.3,0.2-0.9-0.1-1c-0.3-0.1-0.5-0.1-1-0.1c-0.1,0-0.1,0-0.2,0c-0.3,0-0.8,0-1.3,0
				c-1,0-1.4-0.8-1.6-1.2l0,0l0,0c0.3-1,0.9-1.9,1.8-2.7c0.1,0-0.2,0-0.2,0c0.1-0.1,0.4-0.2,0.5-0.3s-0.4-0.2-0.8-0.1
				c-0.4,0.1-0.5,0.1-0.7,0.3l0,0c0.1-0.1,0.4-0.2,0.3-0.2c-0.5,0.1-1,0.4-1.5,0.7v-0.1c-0.2,0.1-0.8,0.5-0.9,0.8c0-0.1,0-0.1,0-0.2
				c-0.2,0.1-0.3,0.3-0.4,0.5l0,0c-1.4-0.3-2.6-0.3-3.6,0.1l0,0c-0.3-0.3-0.8-0.7-1.2-1.4l0,0c0,0,0,0.1-0.1,0.1l0,0
				c-0.2-0.4-0.4-1.1-0.5-1.7l0,0l0,0c0,0-0.4,0.2-0.6,1c0,0.1-0.1,0.2-0.1,0.3l0,0v-0.2l0,0c0,0.1-0.2,0.3-0.2,0.4
				c0,0.1-0.1,0.2-0.1,0.4l0,0v-0.2l0,0v0.1v0.1l0,0c0,0.1,0,0.2-0.1,0.2l0,0c0,0.1,0,0.1,0,0.2v0.1c0,0.1,0,0.1,0,0.2l0,0l0,0
				c-0.1,0.3-0.1,0.6-0.1,0.9l0,0c-0.1,1-0.1,1.8,0,1.8c-0.2,0.3-0.4,0.6-0.5,0.9c-0.5,0.9-1.1,2.3-1.5,4.7c0,0,0,0,0-0.1v0.1
				c0,0,0.2-0.8,0.7-1.7c-0.4,1.2-0.6,2.9-0.5,5.6v-0.1v0.1c0-0.1,0.1-0.8,0.3-1.7c0.1,1.8,0.5,4,1.9,6.3c1.1,1.8,3.8,6,10.8,7.6
				c-0.8-0.2-1.2-0.7-1.2-0.7s2.6,0.8,4.5,0.8c-0.6-0.1-0.7-0.4-0.7-0.4s6.8,0.4,9.1-2.8c-0.8,0.9-2.8,1.2-3.6,1.2
				c0.7-0.6,1.8-0.9,3.1-1.5c0.5-0.2,1.1-0.5,1.6-0.9c0.7-0.5,1.6-1.2,2.4-2.1c0.3-0.4,0.5-0.7,0.7-1.1c0.3-0.6,0.5-1.3,0.6-2
				c0,0.1,0,0.2,0,0.3c0-0.1,0-0.2,0-0.3C283.9,31.5,282.6,32.4,281.2,33.1z M264.7,23L264.7,23L264.7,23L264.7,23z"/>
		</g>
	</g>
	<path class="st4" d="M341.4,40.5c8.2,0,14.9-6.7,14.9-14.9s-6.7-14.9-14.9-14.9c-8.2,0-14.9,6.7-14.9,14.9S333.2,40.5,341.4,40.5z"
		/>
	<g>
		<circle class="st4" cx="368.1" cy="24.5" r="15.1"/>
		<g>
			<path class="st3" d="M354.4,20.9V24h2.8v0.5h-2.8v3.6h-0.5v-7.7h3.6v0.5L354.4,20.9L354.4,20.9z"/>
			<path class="st3" d="M359.1,21.2c-0.1,0-0.2,0-0.3-0.1c-0.1-0.1-0.1-0.2-0.1-0.3c0-0.1,0-0.2,0.1-0.3c0.1-0.1,0.2-0.1,0.3-0.1
				c0.1,0,0.2,0,0.3,0.1c0.1,0.1,0.1,0.2,0.1,0.3c0,0.1,0,0.2-0.1,0.3C359.3,21.2,359.2,21.2,359.1,21.2z M358.8,28.1v-5.5h0.5v5.5
				H358.8z"/>
			<path class="st3" d="M363.6,23.1c-0.2-0.1-0.4-0.2-0.6-0.2c-0.4,0-0.8,0.2-1.1,0.7c-0.3,0.4-0.4,1.1-0.4,1.9V28H361v-5.5h0.5v1.2
				l0,0c0.1-0.4,0.3-0.7,0.6-1c0.3-0.2,0.6-0.3,0.9-0.3c0.2,0,0.4,0,0.5,0.1L363.6,23.1L363.6,23.1z"/>
			<path class="st3" d="M364.6,25.4c0,0.8,0.2,1.4,0.5,1.8s0.8,0.6,1.4,0.6s1.2-0.2,1.8-0.7v0.5c-0.6,0.4-1.2,0.6-1.9,0.6
				s-1.3-0.3-1.7-0.8c-0.4-0.5-0.7-1.2-0.7-2.2c0-0.8,0.2-1.5,0.7-2s1.1-0.8,1.8-0.8c0.7,0,1.2,0.2,1.6,0.7s0.5,1.1,0.5,2v0.2
				L364.6,25.4L364.6,25.4z M368.1,24.9c0-0.6-0.2-1.1-0.5-1.5c-0.3-0.3-0.7-0.5-1.2-0.5s-0.9,0.2-1.3,0.5c-0.3,0.3-0.5,0.8-0.6,1.5
				H368.1L368.1,24.9z"/>
			<path class="st3" d="M373.3,28.2c-1.1,0-1.9-0.4-2.6-1.1c-0.6-0.7-1-1.6-1-2.8c0-1.2,0.3-2.2,1-2.9c0.7-0.7,1.6-1.1,2.7-1.1
				c1,0,1.9,0.3,2.5,1.1c0.6,0.7,1,1.6,1,2.8c0,1.3-0.3,2.3-1,3C375.3,27.8,374.4,28.2,373.3,28.2z M373.3,20.7
				c-0.9,0-1.6,0.3-2.2,1c-0.6,0.6-0.9,1.5-0.9,2.5c0,1.1,0.3,1.9,0.8,2.5s1.3,0.9,2.2,0.9c0.9,0,1.7-0.3,2.2-0.9s0.8-1.5,0.8-2.6
				s-0.3-1.9-0.8-2.5C375,21.1,374.2,20.7,373.3,20.7z"/>
			<path class="st3" d="M378.2,27.8v-0.6c0.5,0.3,1.1,0.5,1.7,0.5s1.1-0.1,1.4-0.4s0.5-0.6,0.5-1s-0.1-0.7-0.3-0.9
				c-0.2-0.2-0.7-0.5-1.4-1c-0.8-0.5-1.3-0.8-1.5-1.1c-0.2-0.3-0.3-0.7-0.3-1.1c0-0.5,0.2-1,0.6-1.4s1-0.6,1.7-0.6
				c0.5,0,0.9,0.1,1.4,0.2v0.5c-0.5-0.2-0.9-0.3-1.4-0.3s-0.9,0.1-1.2,0.4c-0.3,0.3-0.5,0.6-0.5,1s0.1,0.7,0.3,0.9
				c0.2,0.2,0.7,0.5,1.4,0.9c0.7,0.4,1.2,0.8,1.4,1.1c0.2,0.3,0.4,0.7,0.4,1.1c0,0.6-0.2,1.1-0.6,1.4c-0.4,0.4-1,0.5-1.7,0.5
				c-0.3,0-0.6,0-0.9-0.1C378.7,28,378.4,27.9,378.2,27.8z"/>
		</g>
	</g>
	<g>
		<circle class="st4" cx="319" cy="24.5" r="15.1"/>
		<g>
			<path class="st3" d="M327.4,24.8c0,2-1.8,3.5-4.3,2.8c-1.4-0.4-2-1.4-2.1-2.8c-0.2-1.3,0.5-2.7,1.5-3.3c1.2-0.6,2.8-0.5,3.8,0.3
				C327.1,22.6,327.4,23.5,327.4,24.8z M327.2,24.2c0-0.8-0.3-1.7-1.2-2.3c-1.1-0.8-2.3-0.8-3.5-0.2c-1.2,0.6-1.5,1.8-1.4,3
				c0.1,1.5,0.9,2.4,2.1,2.8C325.4,28.2,327.2,26.8,327.2,24.2z"/>
			<path class="st3" d="M332.3,23.1c0-0.1-0.1-0.2-0.1-0.2c-0.1-0.8-0.6-1.3-1.4-1.4c-0.6-0.1-1.2,0-1.8,0.1c-0.6,0.2-1,0.7-1,1.3
				c0,0.6,0.3,1,0.9,1.2s1.3,0.4,2,0.5c0.2,0.1,0.5,0.1,0.7,0.2c1,0.4,1.2,1.8,0.4,2.5c-0.9,0.7-2.8,0.7-3.7,0
				c-0.5-0.4-0.7-1-0.6-1.7c0.1,0.2,0.1,0.2,0.1,0.3c0.1,1,0.6,1.5,1.5,1.8c0.7,0.2,1.3,0.2,2-0.1c0.7-0.3,1-0.7,1-1.4
				c0-0.6-0.3-1.1-1.1-1.3c-0.7-0.2-1.5-0.4-2.3-0.6s-1.1-0.7-1.1-1.4c0-0.7,0.4-1.2,1.2-1.5c0.7-0.2,1.4-0.2,2.2,0
				C332,21.6,332.3,22.2,332.3,23.1z"/>
			<path class="st3" d="M309.9,27.7c-0.5-1.4-0.9-2.9-1.4-4.3h-0.1c-0.5,1.4-1,2.9-1.4,4.3c-0.1,0-0.1,0-0.2,0
				c-0.5-1.5-0.9-3-1.4-4.5h0.1c0.4,1.4,0.9,2.9,1.4,4.4c0.1-0.3,0.2-0.4,0.2-0.6c0.4-1.2,0.7-2.4,1.1-3.6c0-0.1,0.2-0.2,0.2-0.3
				c0.1,0.1,0.2,0.2,0.2,0.3c0.4,1.2,0.8,2.4,1.1,3.6c0.1,0.2,0.1,0.3,0.2,0.4h0.1c0.4-1.4,0.9-2.8,1.3-4.3h0.1
				c-0.5,1.5-1,3-1.4,4.4C310,27.7,309.9,27.7,309.9,27.7z"/>
			<path class="st3" d="M316.6,26.2c0.1,0.2,0.2,0.4,0.3,0.5c0.4,0.7,0.9,1,1.7,1c0.7-0.1,1.2-0.4,1.5-1.1c0.3-0.8,0.3-1.6-0.1-2.3
				c-0.3-0.7-0.8-1.1-1.6-1c-0.7,0-1.3,0.4-1.6,1.1c-0.1,0.4-0.2,0.7-0.3,1.2c0-1.4,0-2.7,0-4h0.1c0,0.9,0,1.9,0,2.9
				c0.1-0.1,0.1-0.1,0.2-0.1c0.5-0.9,1.1-1.3,2-1.2c0.9,0.1,1.5,0.7,1.6,1.7c0.2,0.8,0.1,1.5-0.3,2.2c-0.4,0.6-1.2,1-1.9,0.8
				C317.3,27.6,316.7,27,316.6,26.2z"/>
			<path class="st3" d="M315.7,25.4c-1.2,0-2.2,0-3.3,0c-0.6,0-0.6,0-0.5,0.6c0.2,1.3,1.2,1.9,2.4,1.5c0.5-0.2,0.9-0.5,1.1-1
				c0.1-0.1,0.1-0.3,0.2-0.4c-0.1,0.6-0.4,1.1-0.9,1.4c-1.3,0.6-2.7-0.1-2.9-1.5c-0.1-0.6-0.1-1.2,0.2-1.8c0.4-0.8,1.2-1.3,2-1.2
				c0.9,0.1,1.5,0.7,1.7,1.6C315.7,24.9,315.7,25.1,315.7,25.4z M311.9,25.3c1.2,0,2.3,0,3.5,0c0.1,0,0.2-0.2,0.2-0.2
				c0.1-0.7-0.5-1.6-1.3-1.8C313,22.9,311.9,23.8,311.9,25.3z"/>
		</g>
	</g>
	<g>
		<g>
			<g>
				<defs>
					<rect id="SVGID_1_" x="460.7" y="8.3" width="32" height="32"/>
				</defs>
				<clipPath id="SVGID_2_">
					<use xlink:href="#SVGID_1_"  style="overflow:visible;"/>
				</clipPath>
				<g class="st5">
					<g>
						<defs>
							<rect id="SVGID_3_" x="460.7" y="8.3" width="32" height="32"/>
						</defs>
						<clipPath id="SVGID_4_">
							<use xlink:href="#SVGID_3_"  style="overflow:visible;"/>
						</clipPath>
						<path class="st6" d="M492.7,24.3c0,8.8-7.2,16-16,16s-16-7.2-16-16s7.2-16,16-16C485.5,8.3,492.7,15.5,492.7,24.3"/>
					</g>
					<g>
						<defs>
							<rect id="SVGID_5_" x="460.7" y="8.3" width="32" height="32"/>
						</defs>
						<clipPath id="SVGID_6_">
							<use xlink:href="#SVGID_5_"  style="overflow:visible;"/>
						</clipPath>
						<g class="st7">
							<g>
								<defs>
									<rect id="SVGID_7_" x="460.7" y="8.3" width="32" height="32"/>
								</defs>
								<clipPath id="SVGID_8_">
									<use xlink:href="#SVGID_7_"  style="overflow:visible;"/>
								</clipPath>
								<path class="st8" d="M476.7,10.3c-7.7,0-14,6.3-14,14s6.3,14,14,14s14-6.3,14-14S484.4,10.3,476.7,10.3 M486.5,19.3h-5.1
									c-0.3-2.1-0.8-4-1.4-5.5C482.8,14.7,485.1,16.7,486.5,19.3 M479.7,24.3c0,1.1,0,2.1-0.1,3h-5.8c-0.1-0.9-0.1-1.9-0.1-3
									s0-2.1,0.1-3h5.8C479.6,22.3,479.7,23.3,479.7,24.3 M476.7,35.3c-0.3,0-0.6,0-0.9,0c-0.6-1.1-1.4-3.1-1.8-6h5.3
									c-0.4,2.9-1.1,4.8-1.8,6C477.3,35.3,477,35.3,476.7,35.3 M474,19.3c0.4-2.9,1.1-4.8,1.8-6c0.3,0,0.6,0,0.9,0s0.6,0,0.9,0
									c0.6,1.1,1.4,3.1,1.8,6H474z M473.4,13.8c-0.6,1.5-1.1,3.4-1.4,5.5h-5.1C468.2,16.7,470.5,14.7,473.4,13.8 M466.1,21.3h5.7
									c-0.1,1-0.1,2-0.1,3s0,2,0.1,3h-5.7c-0.3-1-0.4-2-0.4-3S465.8,22.3,466.1,21.3 M466.9,29.3h5.1c0.3,2.1,0.8,4,1.4,5.5
									C470.5,33.9,468.2,31.9,466.9,29.3 M480,34.8c0.6-1.5,1.1-3.4,1.4-5.5h5.1C485.1,31.9,482.8,33.9,480,34.8 M487.2,27.3h-5.7
									c0.1-1,0.1-2,0.1-3s0-2-0.1-3h5.7c0.3,1,0.4,2,0.4,3C487.7,25.4,487.5,26.4,487.2,27.3"/>
							</g>
							<g>
								<defs>
									<rect id="SVGID_9_" x="460.7" y="8.3" width="32" height="32"/>
								</defs>
								<clipPath id="SVGID_10_">
									<use xlink:href="#SVGID_9_"  style="overflow:visible;"/>
								</clipPath>
								<g class="st9">
									<g>
										<defs>
											<rect id="SVGID_11_" x="460.7" y="8.3" width="32" height="32"/>
										</defs>
										<clipPath id="SVGID_12_">
											<use xlink:href="#SVGID_11_"  style="overflow:visible;"/>
										</clipPath>
										<path class="st10" d="M486.5,19.3h-5.1c-0.3-2.1-0.8-4-1.4-5.5C482.8,14.7,485.1,16.7,486.5,19.3 M479.5,21.3h-5.8
											c-0.1,0.9-0.1,1.9-0.1,3s0,2.1,0.1,3h5.8c0.1-0.9,0.1-1.9,0.1-3S479.6,22.3,479.5,21.3 M477.5,35.3c0.6-1.1,1.4-3.1,1.8-6
											H474c0.4,2.9,1.1,4.8,1.8,6c0.3,0,0.6,0,0.9,0C477,35.3,477.3,35.3,477.5,35.3 M479.3,19.3c-0.4-2.9-1.1-4.8-1.8-6
											c-0.3,0-0.6,0-0.9,0s-0.6,0-0.9,0c-0.6,1.1-1.4,3.1-1.8,6H479.3z M466.9,19.3h5.1c0.3-2.1,0.8-4,1.4-5.5
											C470.5,14.7,468.2,16.7,466.9,19.3 M465.7,24.3c0,1,0.2,2,0.4,3h5.7c-0.1-1-0.1-2-0.1-3s0-2,0.1-3h-5.7
											C465.8,22.3,465.7,23.3,465.7,24.3 M473.4,34.8c-0.6-1.5-1.1-3.4-1.4-5.5h-5.1C468.2,31.9,470.5,33.9,473.4,34.8
											 M486.5,29.3h-5.1c-0.3,2.1-0.8,4-1.4,5.5C482.8,33.9,485.1,31.9,486.5,29.3 M487.7,24.3c0-1-0.2-2-0.4-3h-5.7
											c0.1,1,0.1,2,0.1,3s0,2-0.1,3h5.7C487.5,26.4,487.7,25.4,487.7,24.3"/>
									</g>
								</g>
							</g>
						</g>
					</g>
				</g>
			</g>
		</g>
	</g>
	<circle class="st11" cx="421.5" cy="25.4" r="14.8"/>
	<g>
		<path d="M427.2,16.9h0.6l-5.9,7.9l6.2,8.4h-0.6l-6-8l-6,8H415l6.3-8.4l-5.9-7.9h0.6l5.6,7.5L427.2,16.9z"/>
	</g>
</g>
<g id="Layer_2">
</g>
</svg>
