<svg xmlns="http://www.w3.org/2000/svg" width="40" height="44" viewBox="0 0 40 44">
  <g fill="#fff">
    <path d="M11.8 28.4l-1.6.1v.7c0 1.9 1.1 2.3 2 2.3h.2l2.6-.2c.1-.3.1-.5.1-.5s-.3-16.3-.4-18.3c0-.5-.1-.8-.3-1.1-.9-.1-1.8-.1-2.4-.2h-.3c-.6 0-1.1.2-1.4.5-.5.5-.4 1.2-.4 1.2v1.2c1.3.1 2.2.1 2.2.1s1.4.3 1.5 1.8c.1 1.6.1 10.6.1 10.6s.1 1.5-1.9 1.8zM6.8 28.8l-2.5.2s-2.1.3-2.2-2c0-1.7-.2-11.5-.2-11.5s-.1-1.8 2.1-1.7c.7 0 1.6.1 2.7.2 0-1.6-.1-3-.1-4.1-1.5-.2-2.8-.3-3.7-.4-2.9-.3-2.8 2.1-2.8 2.1s.3 17.9.4 20.1c.1 2.6 2.9 2.2 2.9 2.2l3.5-.4c0-1.2 0-2.9-.1-4.7zM37.9 6.5c-.1-3.4-3.1-4.1-3.1-4.1s-10.2-1.5-14.7-2.1c-4.5-.6-4.2 3.8-4.2 3.8s1 31.7 1.1 35.6c.1 4.7 4.5 3.9 4.5 3.9l15.4-2.6c2.8-.6 2.9-4.1 2.9-4.1s-1.8-26.7-1.9-30.4zm-3.4 26.9l-11.5 1.2s-3.3.5-3.4-3.6c-.1-3-.7-20.1-.7-20.1s-.2-3.1 3.2-2.9c3.5.3 11.9 1 11.9 1s2.2.5 2.3 3.1c.1 2.8 1.1 18.3 1.1 18.3s.2 2.5-2.9 3zM22.9 34l4.4-.5c-.2-4.5-1-22-1.1-24.5-1.6-.1-3.1-.2-4.2-.3h-.3c-.7 0-1.3.2-1.7.6-.6.6-.6 1.7-.6 1.7v.3c1.8.2 3.2.3 3.2.3s1.9.4 2 2.5c.1 2.3.6 14.7.6 14.7s.2 2.1-2.5 2.5l-2.6.2c.2 2.1 1.4 2.6 2.4 2.6.3-.1.4-.1.4-.1zM16.2 31.8l-3.6.3s-2.9.4-2.9-2.9c0-2.4-.3-16.3-.3-16.3s-.2-2.6 2.8-2.4c.9.1 2.1.2 3.4.3-.1-2.6-.2-4.7-.2-5.8-1.7-.2-3.4-.3-4.6-.5-3.9-.4-3.7 3-3.7 3s.4 25.5.5 28.6c.1 3.7 3.9 3.1 3.9 3.1l4.9-.6c-.1-1.4-.1-3.8-.2-6.8z"></path>
  </g>
</svg>
